<svg xmlns="http://www.w3.org/2000/svg" width="173" height="55" viewBox="0 0 173 55" fill="none"><path d="M53.7418 17.8177L58.6155 32.3709C59.2247 34.1309 59.6308 34.537 60.6462 34.537H61.6615V37.1092H50.9666V34.537H51.8465C52.7265 34.537 53.4711 34.4016 53.4711 34.1309C53.4711 33.8601 53.4711 33.5217 53.3357 33.0478L52.7265 30.9495H46.7021L46.3637 32.1002C46.0252 33.1155 45.9575 33.5217 45.9575 33.9278C45.9575 34.4016 46.9729 34.4693 47.7852 34.4693H48.5974V37.0415H40.0009V34.4693H41.0162C42.0315 34.4693 42.4377 34.0632 43.0469 32.3032L47.9205 17.75M47.5821 28.4449H51.7788L49.6805 22.1498H49.6128L47.5821 28.4449Z" fill="#9BA1AD"></path><path d="M63.286 21.4059C63.286 20.5936 63.0829 20.1198 62.2707 20.1198H60.9169V17.8184H68.1596V25.0611C69.2427 23.8427 70.5965 23.0305 71.8826 23.0305C76.2824 23.0305 77.9069 26.4149 77.9069 30.2732C77.9069 34.1315 76.2824 37.516 71.8826 37.516C70.055 37.516 68.4304 36.9068 67.4151 35.2823L66.6028 37.1099H63.3537M68.092 30.2732C68.092 33.2516 68.7689 35.0115 70.3934 35.0115C72.018 35.0115 72.6948 33.2516 72.6948 30.2732C72.6948 27.2949 72.018 25.535 70.3934 25.535C68.7689 25.535 68.092 27.3626 68.092 30.2732Z" fill="#9BA1AD"></path><path d="M79.5985 21.4059C79.5985 20.5936 79.3954 20.1198 78.5832 20.1198H77.2294V17.8184H84.4721V25.0611C85.5552 23.8427 86.909 23.0305 88.2628 23.0305C92.6626 23.0305 94.2871 26.4149 94.2871 30.2732C94.2871 34.1315 92.6626 37.516 88.2628 37.516C86.4351 37.516 84.8106 36.9068 83.7953 35.2823L82.9153 37.1099H79.6662M84.4721 30.2732C84.4721 33.2516 85.149 35.0115 86.7736 35.0115C88.3981 35.0115 89.075 33.2516 89.075 30.2732C89.075 27.2949 88.3981 25.535 86.7736 25.535C85.149 25.535 84.4721 27.3626 84.4721 30.2732Z" fill="#9BA1AD"></path><path d="M110.669 30.274C110.669 34.9446 107.487 37.5168 103.155 37.5168C98.8229 37.5168 95.6415 34.9446 95.6415 30.274C95.6415 25.6035 98.8229 23.0312 103.155 23.0312C107.487 23.0312 110.669 25.6711 110.669 30.274ZM100.786 30.274C100.786 33.7262 101.395 35.2154 103.155 35.2154C104.915 35.2154 105.524 33.7262 105.524 30.274C105.524 26.8219 104.915 25.3327 103.155 25.3327C101.395 25.4004 100.786 26.8896 100.786 30.274Z" fill="#9BA1AD"></path><path d="M131.449 30.5447V32.8462C131.449 34.2 131.178 34.9445 130.027 34.9445C129.351 34.9445 129.012 34.4707 129.012 33.8615V25.8064H132.6V23.505H129.012V18.0898H126.101C125.898 20.5267 125.086 23.505 122.175 23.505H117.64V18.0898H114.73C114.527 20.5267 113.714 23.505 110.804 23.505V25.8064H112.767V33.1169C112.767 36.0953 114.459 37.5167 117.437 37.5167C120.957 37.5167 122.311 35.9599 122.311 33.1169V30.5447H120.009V32.8462C120.009 34.2 119.739 35.0122 118.588 35.0122C117.911 35.0122 117.573 34.5384 117.573 33.9292V25.8064H124.071V33.1169C124.071 36.0953 125.695 37.5167 128.741 37.5167C132.261 37.5167 133.615 35.9599 133.615 33.1169V30.5447H131.449Z" fill="#9BA1AD"></path></svg>