<svg xmlns="http://www.w3.org/2000/svg" width="173" height="55" viewBox="0 0 173 55" fill="none"><path d="M85.7882 30.3296C85.7882 27.7987 87.8383 25.7544 90.3764 25.7544C92.9146 25.7544 94.9646 27.7987 94.9646 30.3296C94.9646 32.8606 92.9146 34.9049 90.3764 34.9049C87.8383 34.9049 85.7882 32.9093 85.7882 30.3296ZM104.531 30.3296C104.531 27.7987 106.581 25.7544 109.12 25.7544C111.658 25.7544 113.708 27.7987 113.708 30.3296C113.708 32.8606 111.658 34.9049 109.12 34.9049C106.581 34.9535 104.531 32.9093 104.531 30.3296ZM61.0414 30.3296C61.0414 27.7987 63.0915 25.7544 65.6296 25.7544C68.1677 25.7544 70.2178 27.7987 70.2178 30.3296C70.2178 32.8606 68.1677 34.9049 65.6296 34.9049C63.0915 34.9535 61.0414 32.9093 61.0414 30.3296ZM42.2983 30.3296C42.2983 27.7987 44.3483 25.7544 46.8864 25.7544C49.4246 25.7544 51.4746 27.7987 51.4746 30.3296C51.4746 32.8606 49.4246 34.9049 46.8864 34.9049C44.3483 34.9535 42.2983 32.9093 42.2983 30.3296ZM80.2239 22.2013H76.2214V38.2633H80.2239V22.2013ZM51.4746 38.3119H55.477V22.25H51.4746V23.5642C50.1079 22.6394 48.4972 22.104 46.6912 22.104C42.103 22.0553 38.3934 25.7544 38.3934 30.3296C38.3934 34.9535 42.103 38.6527 46.74 38.6527C48.4972 38.6527 50.1567 38.1173 51.5234 37.1925V38.3119H51.4746ZM113.708 38.3119H117.71V22.25H113.708V23.5642C112.341 22.6394 110.73 22.104 108.924 22.104C104.336 22.104 100.578 25.8031 100.578 30.427C100.578 35.0509 104.287 38.75 108.924 38.75C110.682 38.75 112.341 38.2146 113.708 37.2898V38.3119ZM119.175 33.104C119.321 36.365 122.054 38.6527 126.74 38.6527C130.547 38.6527 133.671 36.9978 133.671 33.396C133.671 30.865 132.256 29.4049 128.985 28.7721L126.447 28.2854C124.788 27.9934 123.665 27.6527 123.665 26.6792C123.665 25.6084 124.788 25.1217 126.154 25.1217C128.156 25.1217 128.985 26.1438 129.034 27.3119H133.085C132.841 24.1482 130.352 22.0553 126.252 22.0553C122.054 22.0553 119.565 24.3429 119.565 27.3606C119.565 31.0111 122.542 31.5951 125.081 32.0819L127.179 32.4712C128.693 32.7633 129.376 33.2013 129.376 34.0774C129.376 34.8562 128.595 35.635 126.838 35.635C124.202 35.635 123.372 34.2721 123.323 33.104H119.175ZM70.2178 16.75V23.5155C68.8511 22.5907 67.2403 22.0553 65.4343 22.0553C60.8462 22.0553 57.0878 25.7544 57.0878 30.3783C57.1366 34.9535 60.8462 38.6527 65.4832 38.6527C67.2403 38.6527 68.8999 38.1173 70.2666 37.1925V38.3119H74.269V16.75H70.2178ZM94.9646 16.75V23.5155C93.5979 22.5907 91.9872 22.0553 90.1812 22.0553C85.593 22.0553 81.8346 25.7544 81.8346 30.3783C81.8346 35.0022 85.5442 38.7013 90.1812 38.7013C91.9384 38.7013 93.5979 38.1659 94.9646 37.2411V38.3606H98.967V16.75H94.9646ZM76.2214 16.75V20.7412H80.2239V16.75" fill="#9BA1AD"></path></svg>