<svg xmlns="http://www.w3.org/2000/svg" width="13" height="15" viewBox="0 0 13 15" fill="none"><path d="M0.5 2.65625C0.5 1.34375 1.56641 0.25 2.90625 0.25H11.2188C12.0391 0.25 12.75 0.960938 12.75 1.78125V9.65625C12.75 10.2852 12.3672 10.8047 11.875 11.0508V12.9375H12.0938C12.4492 12.9375 12.75 13.2383 12.75 13.5938C12.75 13.9766 12.4492 14.25 12.0938 14.25H2.6875C1.45703 14.25 0.5 13.293 0.5 12.0625C0.5 12.0078 0.5 11.9258 0.5 11.8438V2.65625ZM2.6875 11.1875C2.19531 11.1875 1.8125 11.5977 1.8125 12.0625C1.8125 12.5547 2.19531 12.9375 2.6875 12.9375H10.5625V11.1875H2.6875ZM1.8125 10.0664C2.05859 9.95703 2.35938 9.875 2.6875 9.875H11.2188C11.3281 9.875 11.4375 9.79297 11.4375 9.65625V1.78125C11.4375 1.67188 11.3281 1.5625 11.2188 1.5625H2.90625C2.27734 1.5625 1.8125 2.05469 1.8125 2.65625V10.0664ZM4.875 3.3125L5.09375 2.84766C5.17578 2.68359 5.42188 2.68359 5.50391 2.84766L5.75 3.3125L6.21484 3.55859C6.37891 3.64062 6.37891 3.88672 6.21484 3.96875L5.75 4.1875L5.50391 4.67969C5.42188 4.84375 5.17578 4.84375 5.09375 4.67969L4.875 4.1875L4.38281 3.96875C4.21875 3.88672 4.21875 3.64062 4.38281 3.55859L4.875 3.3125ZM7.71875 6.15625L8.15625 5.11719C8.23828 4.92578 8.48438 4.92578 8.56641 5.11719L9.03125 6.15625L10.0703 6.62109C10.2617 6.70312 10.2617 6.94922 10.0703 7.03125L9.03125 7.46875L8.56641 8.53516C8.48438 8.72656 8.23828 8.72656 8.15625 8.53516L7.71875 7.46875L6.65234 7.03125C6.46094 6.94922 6.46094 6.70312 6.65234 6.62109L7.71875 6.15625Z" fill="#175CD3"></path></svg>