<svg xmlns="http://www.w3.org/2000/svg" width="72" height="60" viewBox="0 0 72 60" fill="none"><path d="M60.834 15V45M68.334 20V40M33.334 20C33.334 22.7614 31.0954 25 28.334 25C25.5726 25 23.334 22.7614 23.334 20C23.334 17.2386 25.5726 15 28.334 15C31.0954 15 33.334 17.2386 33.334 20ZM53.334 31V29C53.334 20.5992 53.334 16.3988 51.6991 13.1901C50.261 10.3677 47.9663 8.073 45.1438 6.6349C41.9352 5 37.7348 5 29.334 5H27.334C18.9332 5 14.7328 5 11.5241 6.6349C8.7017 8.073 6.40699 10.3677 4.96889 13.1901C3.33398 16.3988 3.33398 20.5992 3.33398 29V31C3.33398 39.4008 3.33398 43.6012 4.96889 46.8099C6.40699 49.6323 8.7017 51.927 11.5241 53.3651C14.7328 55 18.9332 55 27.334 55H29.334C37.7348 55 41.9352 55 45.1438 53.3651C47.9663 51.927 50.261 49.6323 51.6991 46.8099C53.334 43.6012 53.334 39.4008 53.334 31ZM38.334 39.1667C38.334 41.0076 36.8416 42.5 35.0007 42.5H21.6673C19.8264 42.5 18.334 41.0076 18.334 39.1667C18.334 35.4848 21.3188 32.5 25.0007 32.5H31.6673C35.3492 32.5 38.334 35.4848 38.334 39.1667Z" stroke="#F1641D" stroke-width="3" stroke-linecap="round" stroke-linejoin="round"></path></svg>