<svg xmlns="http://www.w3.org/2000/svg" width="14" height="13" viewBox="0 0 14 13" fill="none"><path d="M5.44141 0.125H8.53125C9.21484 0.125 9.78906 0.5625 10.0078 1.19141L10.2266 1.875H12.25C13.207 1.875 14 2.66797 14 3.625V10.625C14 11.6094 13.207 12.375 12.25 12.375H1.75C0.765625 12.375 0 11.6094 0 10.625V3.625C0 2.66797 0.765625 1.875 1.75 1.875H3.74609L3.99219 1.19141L4.59375 1.38281L3.99219 1.19141C4.18359 0.5625 4.78516 0.125 5.44141 0.125ZM5.22266 1.60156L4.83984 2.75C4.75781 3.02344 4.51172 3.1875 4.21094 3.1875H1.75C1.50391 3.1875 1.3125 3.40625 1.3125 3.625V10.625C1.3125 10.8711 1.50391 11.0625 1.75 11.0625H12.25C12.4688 11.0625 12.6875 10.8711 12.6875 10.625V3.625C12.6875 3.40625 12.4688 3.1875 12.25 3.1875H9.76172C9.46094 3.1875 9.21484 3.02344 9.13281 2.75L8.75 1.60156C8.72266 1.51953 8.64062 1.4375 8.53125 1.4375H5.44141C5.33203 1.4375 5.25 1.51953 5.22266 1.60156ZM7 10.1875C5.87891 10.1875 4.89453 9.61328 4.34766 8.65625C3.77344 7.72656 3.77344 6.55078 4.34766 5.59375C4.89453 4.66406 5.87891 4.0625 7 4.0625C8.09375 4.0625 9.07812 4.66406 9.625 5.59375C10.1992 6.55078 10.1992 7.72656 9.625 8.65625C9.07812 9.61328 8.09375 10.1875 7 10.1875ZM5.25 7.125C5.25 7.75391 5.57812 8.32812 6.125 8.65625C6.64453 8.95703 7.32812 8.95703 7.875 8.65625C8.39453 8.32812 8.75 7.75391 8.75 7.125C8.75 6.52344 8.39453 5.94922 7.875 5.62109C7.32812 5.32031 6.64453 5.32031 6.125 5.62109C5.57812 5.94922 5.25 6.52344 5.25 7.125Z" fill="#B42318"></path></svg>