<svg xmlns="http://www.w3.org/2000/svg" width="16" height="16" viewBox="0 0 16 16" fill="none"><path fill-rule="evenodd" clip-rule="evenodd" d="M4.47876 2.58216C4.47876 1.15607 5.63483 0 7.06092 0H8.93886C10.3649 0 11.521 1.15607 11.521 2.58216V4.46009C11.521 5.49509 10.9121 6.38786 10.0329 6.79969L12.6482 8.83379L12.5518 8.95775H13.4083C14.8344 8.95775 15.9905 10.1138 15.9905 11.5399V13.4178C15.9905 14.8439 14.8344 16 13.4083 16H11.5304C10.1043 16 8.94825 14.8439 8.94825 13.4178V11.5399C8.94825 10.4072 9.67758 9.44484 10.6923 9.09681L8.42285 7.33172C8.16855 7.13392 7.81245 7.13392 7.55815 7.33172L5.29445 9.09237C6.31593 9.43659 7.05153 10.4023 7.05153 11.5399V13.4178C7.05153 14.8439 5.89546 16 4.46937 16H2.59144C1.16535 16 0.00927734 14.8439 0.00927734 13.4178V11.5399C0.00927734 10.1138 1.16535 8.95775 2.59144 8.95775H3.20872C3.24397 8.9124 3.28538 8.87067 3.33279 8.83379L5.95515 6.79418C5.0823 6.37993 4.47876 5.49049 4.47876 4.46009V2.58216ZM7.06092 1.40845C6.4127 1.40845 5.88721 1.93394 5.88721 2.58216V4.46009C5.88721 5.10831 6.4127 5.6338 7.06092 5.6338H8.93886C9.58708 5.6338 10.1126 5.10831 10.1126 4.46009V2.58216C10.1126 1.93394 9.58708 1.40845 8.93886 1.40845H7.06092ZM2.59144 10.3662C1.94322 10.3662 1.41773 10.8917 1.41773 11.5399V13.4178C1.41773 14.0661 1.94322 14.5915 2.59144 14.5915H4.46937C5.11759 14.5915 5.64308 14.0661 5.64308 13.4178V11.5399C5.64308 10.8917 5.11759 10.3662 4.46937 10.3662H2.59144ZM11.5304 10.3662C10.8822 10.3662 10.3567 10.8917 10.3567 11.5399V13.4178C10.3567 14.0661 10.8822 14.5915 11.5304 14.5915H13.4083C14.0566 14.5915 14.582 14.0661 14.582 13.4178V11.5399C14.582 10.8917 14.0566 10.3662 13.4083 10.3662H11.5304Z" fill="#074D31"></path></svg>