<svg xmlns="http://www.w3.org/2000/svg" width="134" height="55" viewBox="0 0 134 55" fill="none"><path d="M102.854 35.4996C102.854 33.9941 104.052 32.9677 105.422 32.9677C106.791 32.9677 107.99 33.9941 107.99 35.4996C107.99 37.005 106.791 38.0314 105.422 38.0314C104.086 38.0314 102.854 37.005 102.854 35.4996ZM105.456 35.2258C105.901 35.2258 106.004 34.9863 106.004 34.781C106.004 34.5415 105.867 34.3363 105.456 34.3363H104.908V35.2258H105.456ZM104.874 35.6022V37.005H104.429V33.9599H105.558C106.209 33.9599 106.517 34.2336 106.517 34.8153C106.517 35.1574 106.278 35.4311 105.969 35.4653C106.243 35.4996 106.312 35.7391 106.38 36.1496C106.414 36.4233 106.483 36.9024 106.586 37.005H106.038C105.901 36.7313 105.935 36.3207 105.832 35.9786C105.764 35.7048 105.627 35.6364 105.319 35.6364L104.874 35.6022ZM107.51 35.4996C107.51 34.2678 106.654 33.3782 105.456 33.3782C104.257 33.3782 103.401 34.2678 103.401 35.4996C103.401 36.7313 104.257 37.6209 105.456 37.6209C106.62 37.6209 107.51 36.7313 107.51 35.4996Z" fill="#9BA1AD"></path><path d="M93.9854 38.0314L91.0408 34.7126L88.1304 38.0314H81.9673L87.9935 31.2569L81.9673 24.5166H88.3359L91.3147 27.8012L94.1566 24.5166H100.286L94.2936 31.2569L100.388 38.0314H93.9854Z" fill="#9BA1AD"></path><path d="M70.1546 38.0315V16.75H81.9673V21.5058H75.1536V24.5167L81.9673 24.5166V29.0673H75.1536V33.2757H81.9673V38.0314L70.1546 38.0315Z" fill="#9BA1AD"></path><path d="M60.0187 34.7811C58.1697 34.7811 57.0398 33.0704 57.0398 31.2912C57.0398 29.3752 58.0328 27.5618 60.0187 27.5618C62.0731 27.5618 62.8948 29.4094 62.8948 31.2912C62.8948 33.1046 62.0388 34.7811 60.0187 34.7811ZM42.3167 29.1357C42.6249 27.8013 43.6863 26.9117 44.9874 26.9117C46.4255 26.9117 47.4184 27.7671 47.6923 29.1357H42.3167ZM63.0318 16.75V25.4405H62.9633C61.8676 24.1746 60.4638 23.7298 58.8888 23.7298C55.6017 23.7298 53.1365 25.9537 52.2805 28.8962C51.2875 25.6458 48.7538 23.6614 44.9532 23.6614C41.8716 23.6614 39.4748 25.0299 38.2079 27.2881V24.5167H31.8736V21.5058H38.79V16.75H26.224V38.0315H31.8736V29.0673H37.5231C37.3519 29.7173 37.2492 30.4358 37.2492 31.1544C37.2492 35.6023 40.6389 38.7158 44.9874 38.7158C48.6168 38.7158 51.0136 37.0051 52.3147 33.8915H47.4527C46.8021 34.8153 46.2885 35.089 44.9874 35.089C43.4808 35.089 42.1455 33.7547 42.1455 32.1808H52.0066C52.4174 35.7049 55.1909 38.75 58.9572 38.75C60.5665 38.75 62.0731 37.9631 62.9975 36.5945H63.066V37.9631H68.065V16.75H63.0318Z" fill="#9BA1AD"></path></svg>