<svg xmlns="http://www.w3.org/2000/svg" width="16" height="22" viewBox="0 0 16 22" fill="none"><path fill-rule="evenodd" clip-rule="evenodd" d="M4 2.25C2.75736 2.25 1.75 3.25736 1.75 4.5V17.5C1.75 18.7426 2.75736 19.75 4 19.75H12C13.2426 19.75 14.25 18.7426 14.25 17.5V9.5C14.25 9.36193 14.1381 9.25 14 9.25H12C9.37665 9.25 7.25 7.12335 7.25 4.5V2.5C7.25 2.36193 7.13807 2.25 7 2.25H4ZM4 0.75C1.92893 0.75 0.25 2.42893 0.25 4.5V17.5C0.25 19.5711 1.92893 21.25 4 21.25H12C14.0711 21.25 15.75 19.5711 15.75 17.5V8.75143C15.75 8.27984 15.5597 7.82822 15.2221 7.49888L8.8151 1.24745C8.48824 0.928519 8.04965 0.75 7.59297 0.75H4ZM8.75 3.27965V4.5C8.75 6.29493 10.2051 7.75 12 7.75H13.3316L8.75 3.27965ZM7.53112 9.23327C7.82447 9.5257 7.82521 10.0006 7.53278 10.2939L6.20637 11.6245C6.12501 11.7062 6.03605 11.7954 5.95251 11.8669C5.85733 11.9483 5.72465 12.0467 5.54584 12.1088C5.30647 12.1919 5.04748 12.2004 4.80321 12.133C4.62074 12.0826 4.48195 11.9931 4.38167 11.918C4.29365 11.8522 4.19907 11.7688 4.11256 11.6926L3.75033 11.3737C3.43944 11.1 3.4093 10.6261 3.68301 10.3152C3.95673 10.0043 4.43064 9.97417 4.74154 10.2479L5.08926 10.554C5.10171 10.565 5.11343 10.5753 5.12453 10.5851C5.13498 10.5746 5.146 10.5635 5.15771 10.5518L6.47046 9.23493C6.76289 8.94158 7.23777 8.94084 7.53112 9.23327ZM4.96877 10.7342C4.96877 10.7342 4.96904 10.7339 4.96957 10.7336L4.96877 10.7342ZM3.49593 14.5364C3.49593 14.1222 3.83172 13.7864 4.24593 13.7864H10.3959C10.8101 13.7864 11.1459 14.1222 11.1459 14.5364C11.1459 14.9506 10.8101 15.2864 10.3959 15.2864H4.24593C3.83172 15.2864 3.49593 14.9506 3.49593 14.5364ZM3.49593 17.2764C3.49593 16.8622 3.83172 16.5264 4.24593 16.5264H7.38593C7.80015 16.5264 8.13593 16.8622 8.13593 17.2764C8.13593 17.6906 7.80015 18.0264 7.38593 18.0264H4.24593C3.83172 18.0264 3.49593 17.6906 3.49593 17.2764Z" fill="#7A50EC"></path></svg>