<svg xmlns="http://www.w3.org/2000/svg" width="14" height="18" viewBox="0 0 14 18" fill="none"><path fill-rule="evenodd" clip-rule="evenodd" d="M4.3658 1.31707C2.78977 1.31707 1.51214 2.5947 1.51214 4.17073V13.8293C1.51214 15.4053 2.78977 16.6829 4.3658 16.6829H9.63409C11.2101 16.6829 12.4878 15.4053 12.4878 13.8293V7.68293C12.4878 7.56169 12.3895 7.46341 12.2682 7.46341H10.5121C8.20871 7.46341 6.34141 5.59611 6.34141 3.29268V1.53659C6.34141 1.41535 6.24313 1.31707 6.1219 1.31707H4.3658ZM4.3658 0C2.06237 0 0.195068 1.8673 0.195068 4.17073V13.8293C0.195068 16.1327 2.06237 18 4.3658 18H9.63409C11.9375 18 13.8048 16.1327 13.8048 13.8293V7.02565C13.8048 6.61157 13.6377 6.21502 13.3413 5.92585L7.71565 0.436783C7.42864 0.156749 7.04354 0 6.64255 0H4.3658ZM7.65848 2.22115V3.29268C7.65848 4.86871 8.93611 6.14634 10.5121 6.14634H11.6814L7.65848 2.22115Z" fill="#B42318"></path></svg>