<svg xmlns="http://www.w3.org/2000/svg" width="60" height="60" viewBox="0 0 60 60" fill="none"><path d="M15 17.5H30M15 27.5H30M15 37.5H20M47.5 15V45M55 20V40M21 55H24C29.6005 55 32.4008 55 34.5399 53.9101C36.4215 52.9513 37.9513 51.4215 38.9101 49.5399C40 47.4008 40 44.6005 40 39V21C40 15.3995 40 12.5992 38.9101 10.4601C37.9513 8.57847 36.4215 7.04867 34.5399 6.08993C32.4008 5 29.6005 5 24 5H21C15.3995 5 12.5992 5 10.4601 6.08993C8.57847 7.04867 7.04867 8.57847 6.08993 10.4601C5 12.5992 5 15.3995 5 21V39C5 44.6005 5 47.4008 6.08993 49.5399C7.04867 51.4215 8.57847 52.9513 10.4601 53.9101C12.5992 55 15.3995 55 21 55Z" stroke="#F1641D" stroke-width="3" stroke-linecap="round" stroke-linejoin="round"></path></svg>