<svg xmlns="http://www.w3.org/2000/svg" width="173" height="55" viewBox="0 0 173 55" fill="none"><path d="M50.7779 27.2761V30.4273H58.3825C58.1806 32.1705 57.5749 33.5114 56.6328 34.383C55.556 35.4557 53.8063 36.6625 50.7779 36.6625C46.1344 36.6625 42.5003 32.908 42.5003 28.2818C42.5003 23.6557 46.0671 19.9011 50.7779 19.9011C53.2679 19.9011 55.1522 20.9068 56.4982 22.1807L58.719 19.9682C56.8346 18.158 54.2773 16.75 50.7779 16.75C44.3846 16.75 39.0009 21.9125 39.0009 28.2818C39.0009 34.6511 44.3846 39.8136 50.7779 39.8136C54.21 39.8136 56.8346 38.6739 58.8536 36.5955C60.9398 34.517 61.6128 31.567 61.6128 29.2205C61.6128 28.483 61.5455 27.8125 61.4782 27.2761H50.7779Z" fill="#9BA1AD"></path><path d="M71.0344 24.6614C66.9292 24.6614 63.4971 27.8125 63.4971 32.1034C63.4971 36.3943 66.8619 39.5455 71.0344 39.5455C75.2068 39.5455 78.5717 36.4614 78.5717 32.1705C78.5717 27.8125 75.2068 24.6614 71.0344 24.6614ZM71.0344 36.6625C68.7463 36.6625 66.7946 34.7852 66.7946 32.1705C66.7946 29.4886 68.7463 27.6784 71.0344 27.6784C73.3225 27.6784 75.2741 29.4886 75.2741 32.1705C75.2741 34.7852 73.3225 36.6625 71.0344 36.6625Z" fill="#9BA1AD"></path><path d="M107.711 26.3375C106.971 25.4659 105.558 24.6614 103.741 24.6614C99.9722 24.6614 96.742 27.8795 96.742 32.1034C96.742 36.2602 99.9722 39.5455 103.741 39.5455C105.558 39.5455 106.971 38.7409 107.711 37.8693H107.846V38.942C107.846 41.758 106.298 43.3 103.875 43.3C101.857 43.3 100.645 41.892 100.107 40.6182L97.2803 41.825C98.0879 43.7693 100.309 46.25 103.943 46.25C107.779 46.25 111.076 43.9705 111.076 38.4727V25.0636H107.981V26.3375H107.711ZM104.077 36.6625C101.789 36.6625 100.107 34.7182 100.107 32.1705C100.107 29.5557 101.857 27.6784 104.077 27.6784C106.298 27.6784 108.048 29.6227 108.048 32.2375C108.115 34.7852 106.365 36.6625 104.077 36.6625Z" fill="#9BA1AD"></path><path d="M87.7914 24.6614C83.6863 24.6614 80.2541 27.8125 80.2541 32.1034C80.2541 36.3943 83.619 39.5455 87.7914 39.5455C91.9638 39.5455 95.3287 36.4614 95.3287 32.1705C95.3287 27.8125 91.9638 24.6614 87.7914 24.6614ZM87.7914 36.6625C85.5033 36.6625 83.5517 34.7852 83.5517 32.1705C83.5517 29.4886 85.5033 27.6784 87.7914 27.6784C90.0795 27.6784 92.0311 29.4886 92.0311 32.1705C92.0311 34.7852 90.0795 36.6625 87.7914 36.6625Z" fill="#9BA1AD"></path><path d="M113.566 17.0852H116.797V39.6125H113.566V17.0852Z" fill="#9BA1AD"></path><path d="M126.757 36.6625C125.074 36.6625 123.93 35.925 123.122 34.383L133.15 30.2932L132.813 29.4216C132.208 27.7455 130.256 24.6614 126.42 24.6614C122.584 24.6614 119.354 27.6784 119.354 32.1034C119.354 36.2602 122.517 39.5455 126.757 39.5455C130.189 39.5455 132.14 37.467 133.015 36.2602L130.458 34.5841C129.583 35.858 128.439 36.6625 126.757 36.6625ZM126.555 27.4773C127.901 27.4773 129.045 28.1477 129.381 29.0864L122.651 31.9023C122.584 28.8182 124.872 27.4773 126.555 27.4773Z" fill="#9BA1AD"></path></svg>