<svg xmlns="http://www.w3.org/2000/svg" width="16" height="15" viewBox="0 0 16 15" fill="none"><path d="M14 1.5625H1.75C1.50391 1.5625 1.3125 1.78125 1.3125 2V7.25H14.4375V2C14.4375 1.78125 14.2188 1.5625 14 1.5625ZM15.75 7.25V8.5625V9.875C15.75 10.8594 14.957 11.625 14 11.625H9.95312L10.1719 12.9375H11.5938C11.9492 12.9375 12.25 13.2383 12.25 13.5938C12.25 13.9766 11.9492 14.25 11.5938 14.25H9.625H6.125H4.15625C3.77344 14.25 3.5 13.9766 3.5 13.5938C3.5 13.2383 3.77344 12.9375 4.15625 12.9375H5.55078L5.76953 11.625H1.75C0.765625 11.625 0 10.8594 0 9.875V8.5625V7.25V2C0 1.04297 0.765625 0.25 1.75 0.25H14C14.957 0.25 15.75 1.04297 15.75 2V7.25ZM1.3125 8.5625V9.875C1.3125 10.1211 1.50391 10.3125 1.75 10.3125H6.53516H6.5625H9.16016H9.1875H14C14.2188 10.3125 14.4375 10.1211 14.4375 9.875V8.5625H1.3125ZM6.89062 12.9375H8.83203L8.61328 11.625H7.10938L6.89062 12.9375Z" fill="#585858"></path></svg>