<svg xmlns="http://www.w3.org/2000/svg" width="11" height="15" viewBox="0 0 11 15" fill="none"><path d="M2.25 1.5625C2.00391 1.5625 1.8125 1.78125 1.8125 2V12.5C1.8125 12.7461 2.00391 12.9375 2.25 12.9375H4.4375V11.1875C4.4375 10.4766 5.01172 9.875 5.75 9.875C6.46094 9.875 7.0625 10.4766 7.0625 11.1875V12.9375H9.25C9.46875 12.9375 9.6875 12.7461 9.6875 12.5V2C9.6875 1.78125 9.46875 1.5625 9.25 1.5625H2.25ZM0.5 2C0.5 1.04297 1.26562 0.25 2.25 0.25H9.25C10.207 0.25 11 1.04297 11 2V12.5C11 13.4844 10.207 14.25 9.25 14.25H2.25C1.26562 14.25 0.5 13.4844 0.5 12.5V2ZM2.90625 3.09375C2.90625 2.875 3.09766 2.65625 3.34375 2.65625H4.65625C4.875 2.65625 5.09375 2.875 5.09375 3.09375V4.40625C5.09375 4.65234 4.875 4.84375 4.65625 4.84375H3.34375C3.09766 4.84375 2.90625 4.65234 2.90625 4.40625V3.09375ZM6.84375 2.65625H8.15625C8.375 2.65625 8.59375 2.875 8.59375 3.09375V4.40625C8.59375 4.65234 8.375 4.84375 8.15625 4.84375H6.84375C6.59766 4.84375 6.40625 4.65234 6.40625 4.40625V3.09375C6.40625 2.875 6.59766 2.65625 6.84375 2.65625ZM2.90625 6.59375C2.90625 6.375 3.09766 6.15625 3.34375 6.15625H4.65625C4.875 6.15625 5.09375 6.375 5.09375 6.59375V7.90625C5.09375 8.15234 4.875 8.34375 4.65625 8.34375H3.34375C3.09766 8.34375 2.90625 8.15234 2.90625 7.90625V6.59375ZM6.84375 6.15625H8.15625C8.375 6.15625 8.59375 6.375 8.59375 6.59375V7.90625C8.59375 8.15234 8.375 8.34375 8.15625 8.34375H6.84375C6.59766 8.34375 6.40625 8.15234 6.40625 7.90625V6.59375C6.40625 6.375 6.59766 6.15625 6.84375 6.15625Z" fill="#074D31"></path></svg>