<svg xmlns="http://www.w3.org/2000/svg" width="173" height="55" viewBox="0 0 173 55" fill="none"><path fill-rule="evenodd" clip-rule="evenodd" d="M99.4996 32.2535C100.005 30.3135 100.648 28.3274 101.384 26.4798C102.165 28.0964 102.808 30.1288 103.36 32.2535H99.4996ZM104.003 22.9232H99.6375C97.7993 26.2488 96.3748 31.2835 95.134 37.3805H98.5346C98.6724 36.5029 98.8103 35.5791 98.9941 34.6553H103.911C104.095 35.6253 104.279 36.5491 104.463 37.3805H108.598C107.495 32.1149 105.703 26.2488 104.003 22.9232Z" fill="#9BA1AD"></path><path fill-rule="evenodd" clip-rule="evenodd" d="M115.445 20.5676H56.9007V37.1495C56.5791 37.3343 55.614 37.4267 54.9247 37.4267C51.708 37.4267 50.743 35.1634 50.5132 34.7015L44.5393 23.6622V37.4267H41.0009V18.0271C41.4144 17.8424 42.2876 17.75 42.9769 17.75C45.3205 17.75 46.1476 18.3505 47.3884 20.5676L53.4083 31.8378V17.8886H120.362C120.362 19.6438 117.559 20.5676 115.445 20.5676Z" fill="#9BA1AD"></path><path fill-rule="evenodd" clip-rule="evenodd" d="M129.061 34.9954C127.59 34.9954 126.717 34.8568 126.258 34.2102C125.844 33.6097 125.844 32.6397 125.844 31.485H131.404V28.7598H125.844V25.6651H132.278V22.94H122.03V31.5312C122.03 33.5635 122.352 35.3649 123.225 36.2425C124.328 37.3049 126.212 37.7206 128.739 37.7206C130.072 37.7206 131.45 37.4896 132.369 37.0739V34.5335C131.267 34.8106 130.164 34.9954 129.061 34.9954Z" fill="#9BA1AD"></path><path fill-rule="evenodd" clip-rule="evenodd" d="M63.6887 34.164C63.2751 33.5635 63.2751 32.5935 63.2751 31.4388H68.8355V28.7136H63.2751V25.619H69.7086V22.8938H59.461V31.485C59.461 33.5173 59.7827 35.3187 60.6558 36.1963C61.7587 37.2587 63.6428 37.6744 66.1702 37.6744C67.5029 37.6744 68.8815 37.4434 69.8005 37.0277V34.4873C68.7436 34.8106 67.6407 34.9492 66.5378 34.9492C65.0214 34.9954 64.1483 34.8568 63.6887 34.164Z" fill="#9BA1AD"></path><path fill-rule="evenodd" clip-rule="evenodd" d="M74.9539 26.4108C75.1377 25.3946 76.1487 25.3484 77.1596 25.3484C78.6761 25.3484 79.9628 25.6256 81.2955 26.0413V23.4085C80.6981 22.9928 79.1356 22.5771 76.9758 22.5771C75.2296 22.5771 73.5753 22.808 72.3345 24.0089C71.1857 25.0713 70.9559 28.8126 72.1967 30.1521C73.1157 31.1221 75.0917 31.6302 76.6542 32.1844C77.2516 32.4154 78.4923 32.6925 78.4463 33.7549C78.3544 35.0944 77.2516 35.0482 76.2406 35.0482C74.7241 35.0482 73.2077 34.7249 71.7831 34.3553V36.8958C72.4724 37.3115 73.9429 37.681 76.2865 37.681C77.8949 37.681 79.8249 37.3577 80.9278 36.5262C82.3983 35.3715 82.6741 31.8611 81.2955 30.2907C80.3764 29.2283 77.9409 28.7202 76.3784 28.0274C75.4594 27.6579 74.7241 27.5193 74.9539 26.4108Z" fill="#9BA1AD"></path><path fill-rule="evenodd" clip-rule="evenodd" d="M88.5167 34.1934C88.1031 33.5468 87.9653 32.2073 87.9653 30.1288C87.9653 28.0502 88.1031 26.7569 88.5167 26.0641C88.9303 25.4636 89.9413 25.3251 90.9982 25.3251C91.9632 25.3251 92.8823 25.4636 93.8933 25.787V23.2003C93.1121 22.7846 91.8713 22.5999 90.7225 22.5999C88.6086 22.5999 86.4948 22.9232 85.3459 24.1241C84.243 25.2789 83.8754 27.6807 83.8754 30.1749C83.8754 32.7154 84.243 35.071 85.3459 36.2257C86.4948 37.4729 88.6086 37.75 90.7225 37.75C91.7794 37.75 92.8823 37.6114 93.6175 37.2419L94.2149 34.5629C93.158 34.8863 92.2389 35.0248 91.0442 35.0248C89.8953 34.9786 88.8843 34.8401 88.5167 34.1934Z" fill="#9BA1AD"></path><path fill-rule="evenodd" clip-rule="evenodd" d="M110.023 35.302C110.023 37.4267 111.815 37.7038 113.837 37.7038V31.4682H119.719V28.7431H113.837V25.6484H120.271V22.9232H110.023V35.302Z" fill="#9BA1AD"></path></svg>