<svg xmlns="http://www.w3.org/2000/svg" width="173" height="55" viewBox="0 0 173 55" fill="none"><path d="M123.128 27.225L127.482 38.75C126.206 38.575 124.905 38.325 123.603 38.125L121.151 31.75L118.623 37.6C117.397 37.4 116.171 37.325 114.92 37.175L119.349 27.1L115.345 16.75H119.074L121.326 22.525L123.729 16.75H127.482L123.128 27.225ZM112.417 16.75H109.039V36.725C110.14 36.8 111.291 36.85 112.417 36.975V16.75ZM106.136 36.5C103.058 36.3 99.9798 36.1 96.8517 36.05V16.75H100.28V32.8C102.257 32.85 104.234 33 106.136 33.1V36.5ZM93.173 24.575V28H88.4683V35.825H85.0649V16.75H94.6996V20.175H88.4683V24.55H93.173V24.575ZM79.2841 20.175V36C78.133 36 76.9568 36 75.8307 36.05V20.175H72.2771V16.75H82.8627V20.175H79.2841ZM68.5734 28.175C67.0719 28.175 65.2701 28.175 63.9938 28.25V33.35C66.0209 33.2 68.0229 33.05 70.0749 32.975V36.275L60.5654 37.025V16.75H70.0749V20.175H63.9938V24.8C65.3202 24.8 67.3722 24.725 68.5734 24.725V28.175ZM49.5044 26.25V38.25C48.2781 38.4 47.177 38.575 46.0009 38.75V16.75H49.2791L53.7586 29.25V16.75H57.2121V37.325C55.9858 37.525 54.7596 37.6 53.4583 37.775L49.5044 26.25Z" fill="#9BA1AD"></path></svg>