<svg xmlns="http://www.w3.org/2000/svg" fill="#1570EF" viewBox="0 0 18 16"><path fill-rule="evenodd" clip-rule="evenodd" d="M.9 2.545A2.545 2.545 0 0 1 3.447 0h1.852a2.545 2.545 0 0 1 2.545 2.545v1.852a2.545 2.545 0 0 1-2.545 2.545H3.446A2.545 2.545 0 0 1 .901 4.397V2.545Zm2.546-1.157c-.639 0-1.157.518-1.157 1.157v1.852c0 .639.518 1.157 1.157 1.157h1.852c.639 0 1.157-.518 1.157-1.157V2.545c0-.639-.518-1.157-1.157-1.157H3.446Zm6.711 1.157A2.546 2.546 0 0 1 12.703 0h1.85A2.546 2.546 0 0 1 17.1 2.545v1.852a2.546 2.546 0 0 1-2.545 2.545h-1.851a2.546 2.546 0 0 1-2.546-2.545V2.545Zm2.546-1.157c-.64 0-1.157.518-1.157 1.157v1.852c0 .639.518 1.157 1.157 1.157h1.85c.64 0 1.158-.518 1.158-1.157V2.545c0-.639-.518-1.157-1.157-1.157h-1.851Zm.876 7.405c.383 0 .694.311.694.695v2.033h2.033a.694.694 0 1 1 0 1.388h-2.033v2.033a.694.694 0 1 1-1.389 0v-2.033h-2.033a.694.694 0 1 1 0-1.388h2.033V9.488c0-.384.311-.695.694-.695ZM.9 11.603a2.545 2.545 0 0 1 2.545-2.545h1.852a2.545 2.545 0 0 1 2.545 2.545v1.851A2.545 2.545 0 0 1 5.298 16H3.446a2.545 2.545 0 0 1-2.545-2.546v-1.85Zm2.545-1.157c-.639 0-1.157.518-1.157 1.157v1.851c0 .64.518 1.158 1.157 1.158h1.852c.639 0 1.157-.518 1.157-1.158v-1.85c0-.64-.518-1.158-1.157-1.158H3.446Z"></path></svg>