<svg xmlns="http://www.w3.org/2000/svg" width="18" height="16" viewBox="0 0 18 16" fill="none"><path fill-rule="evenodd" clip-rule="evenodd" d="M0.900879 2.54546C0.900879 1.13964 2.04052 0 3.44634 0H5.29759C6.70341 0 7.84306 1.13964 7.84306 2.54546V4.39671C7.84306 5.80253 6.70341 6.94218 5.29759 6.94218H3.44634C2.04052 6.94218 0.900879 5.80253 0.900879 4.39671V2.54546ZM3.44634 1.38844C2.80733 1.38844 2.28931 1.90646 2.28931 2.54546V4.39671C2.28931 5.03572 2.80733 5.55374 3.44634 5.55374H5.29759C5.9366 5.55374 6.45462 5.03572 6.45462 4.39671V2.54546C6.45462 1.90646 5.9366 1.38844 5.29759 1.38844H3.44634ZM10.1571 2.54546C10.1571 1.13964 11.2968 0 12.7026 0H14.5538C15.9596 0 17.0993 1.13964 17.0993 2.54546V4.39671C17.0993 5.80253 15.9596 6.94218 14.5538 6.94218H12.7026C11.2968 6.94218 10.1571 5.80253 10.1571 4.39671V2.54546ZM12.7026 1.38844C12.0636 1.38844 11.5455 1.90646 11.5455 2.54546V4.39671C11.5455 5.03572 12.0636 5.55374 12.7026 5.55374H14.5538C15.1928 5.55374 15.7109 5.03572 15.7109 4.39671V2.54546C15.7109 1.90646 15.1928 1.38844 14.5538 1.38844H12.7026ZM13.5785 8.79342C13.9619 8.79342 14.2727 9.10424 14.2727 9.48764L14.2727 11.5206L16.3056 11.5206C16.689 11.5206 16.9998 11.8314 16.9998 12.2148C16.9998 12.5982 16.689 12.909 16.3056 12.909L14.2727 12.909L14.2727 14.9419C14.2727 15.3253 13.9619 15.6361 13.5785 15.6361C13.1951 15.6361 12.8843 15.3253 12.8843 14.9419L12.8843 12.909L10.8513 12.909C10.4679 12.909 10.1571 12.5982 10.1571 12.2148C10.1571 11.8314 10.4679 11.5206 10.8513 11.5206L12.8843 11.5206L12.8843 9.48764C12.8843 9.10424 13.1951 8.79342 13.5785 8.79342ZM0.900879 11.6033C0.900879 10.1975 2.04052 9.05782 3.44634 9.05782H5.29759C6.70341 9.05782 7.84306 10.1975 7.84306 11.6033V13.4545C7.84306 14.8604 6.70341 16 5.29759 16H3.44634C2.04052 16 0.900879 14.8604 0.900879 13.4545V11.6033ZM3.44634 10.4463C2.80733 10.4463 2.28931 10.9643 2.28931 11.6033V13.4545C2.28931 14.0935 2.80733 14.6116 3.44634 14.6116H5.29759C5.9366 14.6116 6.45462 14.0935 6.45462 13.4545V11.6033C6.45462 10.9643 5.9366 10.4463 5.29759 10.4463H3.44634Z" fill="#1570EF"></path></svg>