<svg xmlns="http://www.w3.org/2000/svg" width="173" height="55" viewBox="0 0 173 55" fill="none"><path d="M123.069 17.1571L120.289 34.5763C120.279 34.6402 120.283 34.7057 120.3 34.7681C120.318 34.8304 120.349 34.8882 120.392 34.9373C120.434 34.9864 120.487 35.0257 120.546 35.0524C120.605 35.0791 120.669 35.0925 120.734 35.0918H124.023C124.139 35.0928 124.252 35.0523 124.341 34.9776C124.429 34.9029 124.488 34.799 124.507 34.6848L127.286 17.2656C127.297 17.2016 127.293 17.1362 127.275 17.0738C127.258 17.0114 127.226 16.9537 127.184 16.9046C127.142 16.8554 127.089 16.8162 127.03 16.7895C126.971 16.7628 126.906 16.7494 126.841 16.7501H123.552C123.436 16.7478 123.323 16.7878 123.234 16.8627C123.145 16.9376 123.086 17.0423 123.069 17.1571ZM119.557 22.2404H116.436C116.32 22.2393 116.207 22.2797 116.119 22.3542C116.03 22.4288 115.971 22.5326 115.953 22.6468L115.85 23.2881C115.85 23.2881 113.426 20.6662 109.134 22.4381C106.672 23.4525 105.49 25.5485 104.988 27.084C104.988 27.084 103.391 31.7506 107.001 34.3192C107.001 34.3192 110.349 36.7897 114.118 34.1672L114.053 34.5763C114.038 34.6724 114.055 34.7707 114.101 34.8564C114.147 34.942 114.22 35.0101 114.309 35.0503C114.368 35.078 114.432 35.0918 114.497 35.0918H117.62C117.737 35.0941 117.85 35.054 117.939 34.9791C118.028 34.9042 118.087 34.7996 118.104 34.6848L120.003 22.756C120.014 22.6921 120.01 22.6266 119.992 22.5643C119.975 22.5021 119.943 22.4445 119.9 22.3959C119.858 22.3464 119.805 22.3067 119.746 22.2797C119.686 22.2527 119.622 22.2398 119.557 22.2404ZM114.964 28.833C114.843 29.6664 114.42 30.4269 113.776 30.9718C113.13 31.5186 112.307 31.8139 111.459 31.8031C111.127 31.807 110.796 31.7589 110.478 31.6607C109.131 31.2323 108.362 29.9511 108.583 28.5621C108.706 27.7291 109.128 26.9692 109.772 26.4247C110.418 25.8776 111.241 25.5814 112.088 25.5906C112.421 25.5872 112.752 25.6357 113.069 25.7344C114.425 26.16 115.19 27.4433 114.968 28.8337L114.964 28.833ZM98.2998 29.1626C99.9922 29.1626 101.629 28.5628 102.915 27.4723C104.198 26.3855 105.047 24.8756 105.309 23.2169C105.856 19.7665 103.134 16.7549 99.2752 16.7549H93.0592C92.9432 16.7538 92.8307 16.7943 92.742 16.869C92.6534 16.9437 92.5946 17.0477 92.5764 17.162L89.7964 34.5811C89.7813 34.6772 89.7982 34.7756 89.8445 34.8612C89.8908 34.9468 89.964 35.0149 90.0527 35.0552C90.1123 35.0828 90.176 35.0966 90.2412 35.0966H93.5324C93.6484 35.0977 93.7609 35.0572 93.8496 34.9825C93.9382 34.9078 93.997 34.8039 94.0152 34.6896L94.8313 29.5745C94.8484 29.4595 94.907 29.3547 94.996 29.2797C95.0849 29.2046 95.1983 29.1645 95.3148 29.1668L98.2998 29.1626ZM101.053 23.06C100.85 24.3357 99.8536 25.2748 97.9479 25.2748H95.5115L96.2514 20.6358H98.6441C100.614 20.6393 101.256 21.7899 101.053 23.0635V23.06Z" fill="#9BA1AD"></path><path d="M86.0464 22.5374L82.282 28.8293L80.3714 22.5837C80.3415 22.484 80.2799 22.3967 80.196 22.335C80.112 22.2733 80.0102 22.2406 79.9059 22.2416H76.5087C76.4208 22.2404 76.3355 22.271 76.2684 22.3276C76.2013 22.3843 76.157 22.4632 76.1436 22.5498C76.1354 22.6073 76.1413 22.6659 76.1609 22.7205L79.5845 33.241L76.4879 38.1985C76.4616 38.2393 76.444 38.2851 76.436 38.3329C76.4281 38.3808 76.43 38.4298 76.4417 38.4768C76.4533 38.5239 76.4745 38.5682 76.5039 38.6068C76.5333 38.6455 76.5703 38.6777 76.6126 38.7016C76.6693 38.7341 76.7336 38.7508 76.799 38.75H80.458C80.5624 38.7503 80.6652 38.7238 80.7563 38.673C80.8475 38.6221 80.9239 38.5487 80.9783 38.4597L90.5409 22.7958C90.5755 22.7413 90.5945 22.6783 90.5959 22.6138C90.5972 22.5492 90.5808 22.4855 90.5485 22.4296C90.5162 22.3735 90.4694 22.327 90.413 22.295C90.3566 22.2631 90.2926 22.2468 90.2277 22.2478H86.5701C86.4651 22.2469 86.3617 22.273 86.27 22.3238C86.1782 22.3745 86.1012 22.4481 86.0464 22.5374ZM74.5829 22.2416H71.4593C71.3431 22.2405 71.2304 22.2811 71.1416 22.3559C71.0529 22.4307 70.994 22.5349 70.9758 22.6493L70.8746 23.2899C70.8746 23.2899 68.4487 20.6681 64.1571 22.44C61.6958 23.4544 60.5133 25.5503 60.0125 27.0858C60.0125 27.0858 58.415 31.7525 62.0242 34.3211C62.0242 34.3211 65.3722 36.7916 69.1414 34.169L69.0763 34.5781C69.061 34.6743 69.0778 34.7727 69.1241 34.8584C69.1704 34.9441 69.2437 35.0122 69.3326 35.0522C69.3915 35.0798 69.4559 35.0937 69.521 35.0937H72.6439C72.7598 35.0945 72.8722 35.0539 72.9608 34.9793C73.0494 34.9046 73.1082 34.8008 73.1267 34.6866L75.0269 22.7578C75.0424 22.6616 75.0257 22.563 74.9794 22.4772C74.933 22.3913 74.8597 22.3231 74.7706 22.2831C74.7115 22.2559 74.6479 22.2418 74.5829 22.2416ZM69.99 28.8356C69.8671 29.668 69.4445 30.4273 68.8013 30.9716C68.155 31.5184 67.3328 31.8143 66.4854 31.805C66.1535 31.8087 65.823 31.7606 65.5059 31.6626C64.1592 31.2342 63.391 29.953 63.612 28.5633C63.735 27.7284 64.1595 26.9671 64.8055 26.4224C65.4541 25.8753 66.279 25.5806 67.1283 25.5925C67.4608 25.589 67.7926 25.6374 68.1099 25.7362C69.4518 26.1619 70.2158 27.4445 69.9942 28.8356H69.99ZM53.3261 29.1645C55.0156 29.1636 56.6499 28.5638 57.937 27.4721C59.2189 26.3854 60.0674 24.8759 60.3284 23.2181C60.8756 19.7684 58.1532 16.7568 54.296 16.7568H48.0793C47.9633 16.7556 47.8508 16.796 47.7621 16.8706C47.6733 16.9451 47.6144 17.0489 47.5958 17.1631L44.8248 34.5774C44.8094 34.6737 44.8261 34.7723 44.8724 34.8581C44.9187 34.9439 44.9921 35.0121 45.0811 35.0522C45.14 35.0791 45.2045 35.0937 45.2696 35.0937H48.5587C48.6749 35.0948 48.7876 35.0542 48.8764 34.9794C48.9651 34.9046 49.024 34.8004 49.0422 34.6859L49.8569 29.5708C49.8742 29.456 49.9328 29.3513 50.0218 29.2764C50.1108 29.2015 50.224 29.1615 50.3404 29.1638L53.3261 29.1645ZM56.0791 23.0612C55.8761 24.3369 54.8807 25.276 52.9749 25.276H50.5386L51.277 20.637H53.6697C55.6406 20.6405 56.2814 21.7918 56.0791 23.0647V23.0612Z" fill="#9BA1AD"></path></svg>