<svg xmlns="http://www.w3.org/2000/svg" width="60" height="60" viewBox="0 0 60 60" fill="none"><path d="M54.748 5.43807L37.8876 22.2768M55 25.1574L47.8549 32.2933M34.8166 5L27.6716 12.1359M15.5233 33.3616H7.03164C5.06731 33.3616 4.25058 35.872 5.83975 37.0251L12.7097 42.01C13.4204 42.5257 13.7178 43.4398 13.4463 44.2742L10.8222 52.3399C10.2152 54.2057 12.3534 55.7572 13.9426 54.604L20.8125 49.6192C21.5232 49.1035 22.4856 49.1035 23.1963 49.6192L30.0662 54.604C31.6554 55.7572 33.7936 54.2057 33.1866 52.3399L30.5625 44.2742C30.2911 43.4398 30.5885 42.5257 31.2992 42.01L38.1691 37.0251C39.7583 35.872 38.9415 33.3616 36.9772 33.3616H28.4855C27.607 33.3616 26.8285 32.7966 26.557 31.9622L23.9329 23.8965C23.3259 22.0307 20.6829 22.0307 20.0759 23.8965L17.4518 31.9622C17.1804 32.7966 16.4018 33.3616 15.5233 33.3616Z" stroke="#F1641D" stroke-width="3" stroke-linecap="round" stroke-linejoin="round"></path></svg>