<svg xmlns="http://www.w3.org/2000/svg" width="16" height="18" viewBox="0 0 16 18" fill="none"><path fill-rule="evenodd" clip-rule="evenodd" d="M8.03366 1.36709C6.80712 1.36709 5.80986 2.36435 5.80986 3.59089C5.80986 4.0425 5.94891 4.46828 6.17948 4.81785C6.57798 5.41872 7.26137 5.81469 8.03366 5.81469C8.80598 5.81469 9.48938 5.4187 9.88788 4.81779C10.1184 4.46823 10.2575 4.04247 10.2575 3.59089C10.2575 2.36435 9.2602 1.36709 8.03366 1.36709ZM4.44277 3.59089C4.44277 1.60933 6.0521 0 8.03366 0C10.0152 0 11.6245 1.60933 11.6245 3.59089C11.6245 4.32385 11.3992 5.00975 11.0285 5.57147L11.0277 5.57257C10.3872 6.53899 9.28443 7.18178 8.03366 7.18178C6.78289 7.18178 5.68013 6.53899 5.03959 5.57257L5.03886 5.57147C4.66813 5.00975 4.44277 4.32385 4.44277 3.59089Z" fill="#FF9901"></path><path fill-rule="evenodd" clip-rule="evenodd" d="M12.9092 10.6271C12.3491 10.0671 11.2983 9.92836 10.4661 10.366L10.4644 10.3669C9.75458 10.7377 8.9349 10.9458 8.05173 10.9458C7.16856 10.9458 6.34888 10.7377 5.63903 10.3669L5.63738 10.366C4.84306 9.9483 3.82136 10.0954 3.15455 10.6639M9.83061 9.15558C11.1127 8.48181 12.832 8.61666 13.8758 9.66045C14.2422 10.0268 14.586 10.4346 14.8828 10.8773C16.1876 12.8237 15.325 15.3358 13.4663 16.4933C11.9387 17.4445 10.0376 18 8.04262 18C5.93152 18 3.78046 17.2631 2.19756 16.1919C0.626228 15.1286 -0.00287503 13.079 0.921315 11.3495C1.25105 10.7324 1.69885 10.1087 2.26738 9.62373C3.33198 8.71602 4.95287 8.46195 6.27278 9.15555C6.78404 9.42246 7.38586 9.57873 8.05173 9.57873C8.71757 9.57873 9.31938 9.42247 9.83061 9.15558ZM3.15455 10.6639C2.7497 11.0092 2.40011 11.4828 2.12706 11.9938C1.56235 13.0506 1.91863 14.3524 2.96374 15.0597C4.33757 15.9894 6.22461 16.6329 8.04262 16.6329C9.78984 16.6329 11.4393 16.145 12.7436 15.3328C14.0803 14.5004 14.5385 12.8189 13.7473 11.6385C13.5056 11.278 13.2202 10.9382 12.9092 10.6271" fill="#FF9901"></path></svg>