<svg xmlns="http://www.w3.org/2000/svg" width="173" height="55" viewBox="0 0 173 55" fill="none"><path d="M125.021 28.8543L127.341 22.7797L129.661 28.8543H125.021ZM129.741 19.3314H124.941L118.221 35.8312H122.381L123.901 31.8014H130.761L132.301 35.8312H136.461L129.741 19.3314ZM95.8409 32.9442C93.1209 32.9442 90.9409 30.4983 90.9409 27.471C90.9409 24.4437 93.1409 21.9978 95.8409 21.9978C98.5409 21.9978 100.741 24.4437 100.741 27.471C100.761 30.4983 98.5609 32.9442 95.8409 32.9442ZM95.8409 18.75C91.0409 18.75 87.1409 22.6594 87.1409 27.471C87.1409 32.2826 91.0409 36.192 95.8409 36.192C100.641 36.192 104.541 32.3027 104.541 27.4911C104.541 22.6594 100.641 18.75 95.8409 18.75ZM61.5409 32.9442C58.8409 32.9442 56.6409 30.4983 56.6409 27.471C56.6409 24.4437 58.8409 21.9978 61.5409 21.9978C64.2609 21.9978 66.4609 24.4437 66.4609 27.471C66.4609 30.4983 64.2609 32.9442 61.5409 32.9442ZM61.5409 18.75C56.7409 18.75 52.8609 22.6594 52.8609 27.471C52.8609 32.2826 56.7409 36.192 61.5409 36.192C66.3409 36.192 70.2409 32.3027 70.2409 27.4911C70.2409 22.6594 66.3409 18.75 61.5409 18.75ZM83.0409 19.3314L78.7809 26.0075L74.5209 19.3314H70.3609L76.9609 29.6763V35.8312H80.6208V29.6763L87.2209 19.3314C87.2009 19.3314 83.0409 19.3314 83.0409 19.3314ZM119.101 19.3314H105.041V22.499H110.261V35.8312H113.921V22.479H119.101V19.3314ZM38.0208 22.479H43.2409V35.8111H46.9009V22.479H52.0809V19.3314H38.0009V22.479H38.0208Z" fill="#9BA1AD"></path></svg>