<svg xmlns="http://www.w3.org/2000/svg" width="134" height="55" viewBox="0 0 134 55" fill="none"><path d="M97.4925 27.4893H93.7721C93.4244 26.5857 93.0072 25.8558 90.921 25.8558C89.4955 25.8558 88.8696 26.4467 88.8696 27.0375C88.8696 27.6979 89.3912 28.2192 90.9558 28.6015L94.3284 29.5051C96.5189 30.096 97.5968 31.8337 97.5968 33.6758C97.5968 34.7184 97.3882 35.9348 96.4146 36.9775C95.6845 37.7421 94.5718 38.75 90.921 38.75C85.8795 38.75 84.2453 35.5873 84.2453 33.641H88.1395C88.5219 35.0312 89.4955 35.5873 91.4078 35.5873C92.729 35.5873 93.8764 35.1007 93.8764 34.0928C93.8764 33.1197 93.042 32.7721 91.9989 32.4941L89.3564 31.7642C88.0699 31.3819 86.9921 31.0691 86.2619 30.4088C84.2801 28.7405 84.4191 25.7168 86.5749 24.1181C87.757 23.2492 88.9739 22.7974 90.921 22.7974C93.2158 22.7974 94.5023 23.4577 95.5106 24.1528C96.3798 24.7784 97.4925 26.3077 97.4925 27.4893ZM34.7335 16.75C34.7683 16.889 42.5219 38.5415 42.5219 38.5415H47.1462L54.274 20.5036H98.5008L98.8485 16.75H50.8666L44.9558 31.6947L39.636 16.75H34.7335ZM72.98 30.7563L78.7517 38.5415H82.3677V23.1449H78.1954V31.5209L72.98 23.1449H68.9815V38.5415H72.98V30.7563ZM98.9528 37.7421C98.9528 37.2903 98.5703 36.908 98.1183 36.908C97.6663 36.908 97.2839 37.2903 97.2839 37.7421C97.2839 38.1939 97.6663 38.5762 98.1183 38.5762C98.6051 38.5762 98.9528 38.1939 98.9528 37.7421C98.9876 37.7421 98.9876 37.7421 98.9528 37.7421ZM98.8833 37.7421C98.8833 38.1592 98.5703 38.472 98.1531 38.472C97.7359 38.472 97.4229 38.1592 97.4229 37.7421C97.4229 37.325 97.7359 37.0122 98.1531 37.0122C98.5356 37.0122 98.8833 37.325 98.8833 37.7421ZM98.5356 37.5683C98.5356 37.3946 98.3965 37.2903 98.2226 37.2903H98.1879H97.8054V38.1592H98.014V37.8811H98.1531L98.3269 38.1592H98.5356L98.3269 37.8464C98.466 37.8116 98.5356 37.7073 98.5356 37.5683ZM98.3269 37.5683C98.3269 37.6378 98.2574 37.7073 98.1879 37.7073C98.1879 37.7073 98.1879 37.7073 98.1531 37.7073H97.9445V37.4641H98.1183C98.1879 37.4293 98.2574 37.4988 98.2922 37.5683C98.3617 37.5683 98.3617 37.5683 98.3269 37.5683ZM50.9709 38.5415H55.3866L56.2211 36.1434H62.0971L62.9316 38.5415H67.3125L61.7147 23.1449H57.0208L50.9709 38.5415ZM57.4728 33.3282L59.1765 28.2192L60.8802 33.3282H57.4728Z" fill="#9BA1AD"></path></svg>