<svg xmlns="http://www.w3.org/2000/svg" width="173" height="55" viewBox="0 0 173 55" fill="none"><path d="M95.3025 17.75C90.9163 17.75 86.9781 20.0324 86.9781 24.2206C86.9781 29.0441 93.9348 29.3735 93.9348 31.7735C93.9348 32.7853 92.7557 33.7029 90.7748 33.7029C87.945 33.7029 85.8226 32.4324 85.8226 32.4324L84.9265 36.6676C84.9265 36.6676 87.3554 37.75 90.6097 37.75C95.4205 37.75 99.1936 35.3735 99.1936 31.0912C99.1936 26.0088 92.2133 25.6794 92.2133 23.4441C92.2133 22.6441 93.1802 21.7735 95.1611 21.7735C97.4014 21.7735 99.2408 22.6912 99.2408 22.6912L100.137 18.5971C100.113 18.5971 98.1088 17.75 95.3025 17.75ZM55.1188 18.0559L55.0009 18.6676C55.0009 18.6676 56.8403 18.9971 58.5146 19.6794C60.6605 20.4559 60.802 20.9029 61.1793 22.2912L65.1175 37.4206H70.3999L78.4886 18.0559H73.2298L68.0181 31.2324L65.8958 20.0559C65.7071 18.7853 64.7167 18.0559 63.4904 18.0559H55.1188ZM80.6109 18.0559L76.4841 37.4206H81.5071L85.6103 18.0559H80.6109ZM108.579 18.0559C107.377 18.0559 106.74 18.6912 106.268 19.8206L98.9106 37.4206H104.169L105.183 34.4794H111.598L112.211 37.4206H116.857L112.824 18.0559H108.579ZM109.263 23.3029L110.82 30.5735H106.646L109.263 23.3029Z" fill="#9BA1AD"></path></svg>