<svg width="24" height="25" viewBox="0 0 24 25" fill="none" xmlns="http://www.w3.org/2000/svg">
<rect y="0.673096" width="24" height="24" rx="6"/>
<path d="M15.6473 3.16663C15.7762 2.81839 16.2687 2.81839 16.3976 3.16663L17.8493 7.0897C17.8898 7.19919 17.9761 7.28551 18.0856 7.32603L22.0087 8.77769C22.3569 8.90655 22.3569 9.39911 22.0087 9.52797L18.0856 10.9796C17.9761 11.0202 17.8898 11.1065 17.8493 11.216L16.3976 15.139C16.2687 15.4873 15.7762 15.4873 15.6473 15.139L14.1957 11.216C14.1551 11.1065 14.0688 11.0202 13.9593 10.9796L10.0363 9.52797C9.68801 9.39911 9.68802 8.90655 10.0363 8.77769L13.9593 7.32603C14.0688 7.28551 14.1551 7.19919 14.1957 7.0897L15.6473 3.16663Z" fill="url(#paint0_linear_926_4)"/>
<path d="M6.47935 10.4003C6.60821 10.052 7.10077 10.052 7.22963 10.4003L8.14112 12.8635C8.18163 12.973 8.26795 13.0593 8.37744 13.0999L10.8407 14.0113C11.1889 14.1402 11.1889 14.6328 10.8407 14.7616L8.37744 15.6731C8.26795 15.7136 8.18163 15.7999 8.14112 15.9094L7.22963 18.3727C7.10077 18.7209 6.60821 18.7209 6.47935 18.3727L5.56787 15.9094C5.52735 15.7999 5.44103 15.7136 5.33154 15.6731L2.86829 14.7616C2.52005 14.6328 2.52005 14.1402 2.86829 14.0113L5.33154 13.0999C5.44103 13.0593 5.52735 12.973 5.56787 12.8635L6.47935 10.4003Z" fill="url(#paint1_linear_926_4)"/>
<path d="M13.0965 16.5762C13.2576 16.1408 13.8733 16.1408 14.0344 16.5762L14.431 17.648C14.4816 17.7848 14.5895 17.8927 14.7264 17.9434L15.7982 18.34C16.2335 18.5011 16.2335 19.1167 15.7982 19.2778L14.7264 19.6744C14.5895 19.7251 14.4816 19.833 14.431 19.9698L14.0344 21.0416C13.8733 21.477 13.2576 21.477 13.0965 21.0416L12.6999 19.9698C12.6493 19.833 12.5414 19.7251 12.4045 19.6744L11.3327 19.2778C10.8974 19.1167 10.8974 18.5011 11.3327 18.34L12.4045 17.9434C12.5414 17.8927 12.6493 17.7848 12.6999 17.648L13.0965 16.5762Z" fill="url(#paint2_linear_926_4)"/>
<defs>
<linearGradient id="paint0_linear_926_4" x1="16.0225" y1="3.32755" x2="16.0225" y2="16.1528" gradientUnits="userSpaceOnUse">
<stop stop-color="#FF5722"/>
<stop offset="0.902253" stop-color="#FFD43B"/>
</linearGradient>
<linearGradient id="paint1_linear_926_4" x1="6.85449" y1="9.38647" x2="6.85449" y2="19.3865" gradientUnits="userSpaceOnUse">
<stop stop-color="#00B0FF"/>
<stop offset="0.8668" stop-color="#29B6F6"/>
</linearGradient>
<linearGradient id="paint2_linear_926_4" x1="13.5654" y1="14.5418" x2="13.5654" y2="22.9056" gradientUnits="userSpaceOnUse">
<stop offset="0.125" stop-color="#FF40F7"/>
<stop offset="1" stop-color="#FC5825"/>
</linearGradient>
</defs>
</svg>
