<svg width="233" height="62" viewBox="0 0 233 62" fill="none" xmlns="http://www.w3.org/2000/svg">
<path fill-rule="evenodd" clip-rule="evenodd" d="M28.5338 22.997C28.8904 23.0553 29.2386 23.1292 29.577 23.2187L29.577 22.7003C29.3564 22.6079 29.139 22.507 28.9254 22.398L28.5338 22.997ZM15.3019 27.0569C10.555 30.9329 8.54877 36.4728 10.8143 40.3968C13.4533 44.9676 20.8892 45.6151 27.4229 41.8429C29.6842 40.5373 31.5411 38.8734 32.8932 37.0661C35.9024 37.0584 38.2843 39.7929 39.6334 41.3417C39.9272 41.679 40.172 41.96 40.3637 42.1443C40.373 42.1532 40.3825 42.1617 40.3924 42.1698C43.3306 45.5579 48.3492 46.5004 52.3776 44.1745C56.9457 41.5372 58.5108 35.696 55.8734 31.128C55.0678 29.7326 53.9633 28.6175 52.6875 27.8167C49.0292 25.1337 43.4521 20.0115 42.8267 13.7042C42.797 12.143 42.3833 10.5671 41.5473 9.11912C38.9099 4.55107 33.0688 2.98594 28.5008 5.62331C25.6786 7.25268 24.0026 10.1049 23.7556 13.1242C23.0586 20.1466 20.9043 23.6075 15.2386 26.8361C15.2592 26.9109 15.2803 26.9845 15.3019 27.0569ZM36.575 32.5281C37.2907 32.4293 38.0346 32.3235 38.7934 32.2114C38.7369 32.3465 38.6835 32.4828 38.6333 32.6201L36.575 32.5281Z" fill="#271E3D"/>
<path fill-rule="evenodd" clip-rule="evenodd" d="M40.7206 29.2566C41.432 28.0135 41.8272 26.5737 41.8005 25.0447C41.7204 20.4586 37.8759 16.8069 33.2134 16.8883C28.551 16.9697 24.8362 20.7534 24.9162 25.3394C24.9963 29.9254 28.8409 33.5771 33.5033 33.4957C34.6295 33.4761 35.7004 33.2404 36.6759 32.8296L41.9348 32.7378C41.2816 31.8585 40.9184 30.5572 40.7206 29.2566Z" fill="#FF6666"/>
<path d="M83.7044 30.9577H75.6535L74.3629 34.7681H68.8625L76.6675 13.1967H82.7518L90.5568 34.7681H84.995L83.7044 30.9577ZM82.3523 26.9016L79.6789 19.0044L77.0363 26.9016H82.3523ZM102.489 30.3124V34.7681H99.8154C97.9103 34.7681 96.4251 34.3071 95.3598 33.3853C94.2946 32.4429 93.7619 30.9168 93.7619 28.8067V21.985H91.6724V17.6216H93.7619V13.4425H99.0165V17.6216H102.458V21.985H99.0165V28.8682C99.0165 29.3803 99.1394 29.7491 99.3852 29.9744C99.6311 30.1998 100.041 30.3124 100.614 30.3124H102.489ZM113.221 35.0139C111.541 35.0139 110.025 34.6554 108.673 33.9384C107.341 33.2214 106.286 32.1971 105.508 30.8655C104.75 29.534 104.371 27.9771 104.371 26.1948C104.371 24.4331 104.76 22.8864 105.539 21.5548C106.317 20.2028 107.382 19.1682 108.734 18.4512C110.086 17.7342 111.602 17.3757 113.282 17.3757C114.962 17.3757 116.478 17.7342 117.83 18.4512C119.182 19.1682 120.247 20.2028 121.026 21.5548C121.804 22.8864 122.193 24.4331 122.193 26.1948C122.193 27.9566 121.794 29.5135 120.995 30.8655C120.217 32.1971 119.141 33.2214 117.769 33.9384C116.417 34.6554 114.901 35.0139 113.221 35.0139ZM113.221 30.4661C114.225 30.4661 115.075 30.0973 115.771 29.3599C116.488 28.6224 116.847 27.5674 116.847 26.1948C116.847 24.8223 116.498 23.7673 115.802 23.0298C115.126 22.2923 114.286 21.9236 113.282 21.9236C112.258 21.9236 111.408 22.2923 110.732 23.0298C110.056 23.7468 109.718 24.8018 109.718 26.1948C109.718 27.5674 110.045 28.6224 110.701 29.3599C111.377 30.0973 112.217 30.4661 113.221 30.4661ZM146.86 17.4372C148.99 17.4372 150.68 18.0825 151.93 19.3731C153.2 20.6637 153.835 22.4562 153.835 24.7506V34.7681H148.611V25.4573C148.611 24.3511 148.314 23.501 147.72 22.9069C147.147 22.2923 146.348 21.985 145.323 21.985C144.299 21.985 143.49 22.2923 142.896 22.9069C142.322 23.501 142.035 24.3511 142.035 25.4573V34.7681H136.812V25.4573C136.812 24.3511 136.515 23.501 135.92 22.9069C135.347 22.2923 134.548 21.985 133.524 21.985C132.499 21.985 131.69 22.2923 131.096 22.9069C130.522 23.501 130.236 24.3511 130.236 25.4573V34.7681H124.981V17.6216H130.236V19.7726C130.768 19.0556 131.465 18.4922 132.325 18.0825C133.186 17.6523 134.159 17.4372 135.244 17.4372C136.535 17.4372 137.682 17.7138 138.686 18.2669C139.71 18.82 140.509 19.6087 141.083 20.633C141.677 19.6906 142.486 18.9224 143.51 18.3283C144.535 17.7342 145.651 17.4372 146.86 17.4372ZM156.742 24.0438C156.742 21.9543 157.223 20.0799 158.186 18.4205C159.169 16.7612 160.491 15.4706 162.15 14.5487C163.83 13.6064 165.663 13.1352 167.65 13.1352C169.924 13.1352 171.942 13.6986 173.704 14.8253C175.486 15.9315 176.777 17.5089 177.576 19.5575H173.366C172.813 18.4308 172.045 17.5908 171.061 17.0377C170.078 16.4846 168.941 16.2081 167.65 16.2081C166.237 16.2081 164.977 16.5256 163.871 17.1606C162.765 17.7957 161.894 18.7073 161.259 19.8955C160.644 21.0837 160.337 22.4664 160.337 24.0438C160.337 25.6212 160.644 27.004 161.259 28.1922C161.894 29.3803 162.765 30.3022 163.871 30.9577C164.977 31.5928 166.237 31.9103 167.65 31.9103C168.941 31.9103 170.078 31.6338 171.061 31.0806C172.045 30.5275 172.813 29.6876 173.366 28.5609H177.576C176.777 30.6095 175.486 32.1869 173.704 33.2931C171.942 34.3993 169.924 34.9524 167.65 34.9524C165.643 34.9524 163.809 34.4915 162.15 33.5697C160.491 32.6273 159.169 31.3265 158.186 29.6671C157.223 28.0078 156.742 26.1334 156.742 24.0438ZM190.434 17.5601C191.724 17.5601 192.872 17.8367 193.875 18.3898C194.9 18.9429 195.699 19.7623 196.272 20.8481C196.866 21.9338 197.163 23.2449 197.163 24.7813V34.7681H193.691V25.3037C193.691 23.7878 193.312 22.6303 192.554 21.8314C191.796 21.012 190.761 20.6022 189.45 20.6022C188.139 20.6022 187.095 21.012 186.316 21.8314C185.558 22.6303 185.179 23.7878 185.179 25.3037V34.7681H181.676V12.029H185.179V19.8033C185.773 19.0863 186.521 18.5332 187.422 18.144C188.344 17.7547 189.348 17.5601 190.434 17.5601ZM200.464 26.2255C200.464 24.5252 200.812 23.0195 201.509 21.7085C202.226 20.3974 203.189 19.3833 204.397 18.6663C205.626 17.9289 206.978 17.5601 208.453 17.5601C209.785 17.5601 210.942 17.8264 211.926 18.3591C212.929 18.8712 213.728 19.5165 214.322 20.295V17.8367H217.856V34.7681H214.322V32.2483C213.728 33.0473 212.919 33.7131 211.895 34.2457C210.871 34.7783 209.703 35.0446 208.392 35.0446C206.937 35.0446 205.606 34.6759 204.397 33.9384C203.189 33.1804 202.226 32.1357 201.509 30.8041C200.812 29.452 200.464 27.9259 200.464 26.2255ZM214.322 26.287C214.322 25.1193 214.077 24.1053 213.585 23.2449C213.114 22.3845 212.489 21.7289 211.711 21.2783C210.932 20.8276 210.092 20.6022 209.191 20.6022C208.289 20.6022 207.45 20.8276 206.671 21.2783C205.893 21.7085 205.258 22.3538 204.766 23.2142C204.295 24.0541 204.059 25.0579 204.059 26.2255C204.059 27.3932 204.295 28.4175 204.766 29.2984C205.258 30.1793 205.893 30.8553 206.671 31.3265C207.47 31.7772 208.31 32.0025 209.191 32.0025C210.092 32.0025 210.932 31.7772 211.711 31.3265C212.489 30.8758 213.114 30.2203 213.585 29.3599C214.077 28.479 214.322 27.4547 214.322 26.287ZM226.544 20.6944V30.0666C226.544 30.7017 226.688 31.1626 226.974 31.4494C227.282 31.7157 227.794 31.8489 228.511 31.8489H230.662V34.7681H227.896C226.319 34.7681 225.11 34.3993 224.27 33.6618C223.43 32.9244 223.01 31.7259 223.01 30.0666V20.6944H221.013V17.8367H223.01V13.6269H226.544V17.8367H230.662V20.6944H226.544Z" fill="#251F3C"/>
</svg>
