<svg xmlns="http://www.w3.org/2000/svg" width="71" height="22" viewBox="0 0 71 22" fill="none"><g clip-path="url(#clip0_16066_15891)"><path d="M37.0854 5.52753C37.0854 6.32032 36.4493 6.95896 35.6597 6.95896C34.87 6.95896 34.2339 6.32032 34.2339 5.52753C34.2339 4.73474 34.8481 4.0961 35.6597 4.0961C36.4712 4.11812 37.0854 4.75676 37.0854 5.52753ZM31.2069 8.41241C31.2069 8.54455 31.2069 8.76476 31.2069 8.76476C31.2069 8.76476 30.527 7.88388 29.0793 7.88388C26.6884 7.88388 24.8239 9.71171 24.8239 12.2442C24.8239 14.7548 26.6665 16.6046 29.0793 16.6046C30.5489 16.6046 31.2069 15.7017 31.2069 15.7017V16.0761C31.2069 16.2523 31.3385 16.3844 31.514 16.3844H33.2907V8.1041C33.2907 8.1041 31.6676 8.1041 31.514 8.1041C31.3385 8.1041 31.2069 8.25826 31.2069 8.41241ZM31.2069 13.7197C30.8779 14.2042 30.2199 14.6226 29.4302 14.6226C28.0264 14.6226 26.9516 13.7417 26.9516 12.2442C26.9516 10.7467 28.0264 9.86587 29.4302 9.86587C30.1979 9.86587 30.8998 10.3063 31.2069 10.7688V13.7197ZM34.6068 8.1041H36.7125V16.3844H34.6068V8.1041ZM66.0611 7.88388C64.6134 7.88388 63.9334 8.76476 63.9334 8.76476V4.11812H61.8277V16.3844C61.8277 16.3844 63.4509 16.3844 63.6044 16.3844C63.7799 16.3844 63.9115 16.2302 63.9115 16.0761V15.7017C63.9115 15.7017 64.5915 16.6046 66.0392 16.6046C68.43 16.6046 70.2945 14.7548 70.2945 12.2442C70.2945 9.73373 68.43 7.88388 66.0611 7.88388ZM65.7101 14.6006C64.8986 14.6006 64.2625 14.1822 63.9334 13.6977V10.7467C64.2625 10.3063 64.9644 9.84384 65.7101 9.84384C67.114 9.84384 68.1888 10.7247 68.1888 12.2222C68.1888 13.7197 67.114 14.6006 65.7101 14.6006ZM60.731 11.4735V16.4064H58.6252V11.7157C58.6252 10.3504 58.1866 9.7998 57.0021 9.7998C56.366 9.7998 55.7079 10.1301 55.2912 10.6146V16.3844H53.1855V8.1041H54.8525C55.028 8.1041 55.1596 8.25826 55.1596 8.41241V8.76476C55.7737 8.12613 56.5853 7.88388 57.3969 7.88388C58.3182 7.88388 59.0859 8.14815 59.7 8.67668C60.4458 9.29329 60.731 10.0861 60.731 11.4735ZM48.0747 7.88388C46.627 7.88388 45.947 8.76476 45.947 8.76476V4.11812H43.8413V16.3844C43.8413 16.3844 45.4645 16.3844 45.618 16.3844C45.7935 16.3844 45.9251 16.2302 45.9251 16.0761V15.7017C45.9251 15.7017 46.6051 16.6046 48.0527 16.6046C50.4436 16.6046 52.3081 14.7548 52.3081 12.2442C52.33 9.73373 50.4656 7.88388 48.0747 7.88388ZM47.7237 14.6006C46.9121 14.6006 46.276 14.1822 45.947 13.6977V10.7467C46.276 10.3063 46.9779 9.84384 47.7237 9.84384C49.1275 9.84384 50.2023 10.7247 50.2023 12.2222C50.2023 13.7197 49.1275 14.6006 47.7237 14.6006ZM42.0207 7.88388C42.6568 7.88388 42.9858 7.99399 42.9858 7.99399V9.95395C42.9858 9.95395 41.2311 9.35936 40.1343 10.6146V16.4064H38.0286V8.1041C38.0286 8.1041 39.6518 8.1041 39.8053 8.1041C39.9808 8.1041 40.1124 8.25826 40.1124 8.41241V8.76476C40.5072 8.3023 41.3627 7.88388 42.0207 7.88388ZM20.1519 15.6356C20.0422 15.3714 19.9325 15.0851 19.8228 14.8428C19.6474 14.4464 19.4719 14.0721 19.3183 13.7197L19.2964 13.6977C17.7829 10.3944 16.1598 7.04705 14.4489 3.74374L14.3831 3.61161C14.2076 3.28128 14.0321 2.92893 13.8566 2.57658C13.6373 2.18018 13.4179 1.76176 13.067 1.36537C12.3651 0.484484 11.3561 0 10.2813 0C9.18454 0 8.19748 0.484484 7.47364 1.32132C7.14462 1.71772 6.90334 2.13614 6.68399 2.53253C6.50851 2.88488 6.33304 3.23724 6.15756 3.56757L6.09176 3.6997C4.40279 7.003 2.75769 10.3504 1.2442 13.6537L1.22226 13.6977C1.06872 14.0501 0.893244 14.4244 0.717767 14.8208C0.608094 15.0631 0.49842 15.3273 0.388747 15.6136C0.103597 16.4284 0.0158579 17.1992 0.125531 17.992C0.366812 19.6436 1.46354 21.031 2.97704 21.6476C3.54734 21.8899 4.13957 22 4.75374 22C4.92922 22 5.14857 21.978 5.32404 21.956C6.04789 21.8679 6.79367 21.6256 7.51751 21.2072C8.41683 20.7007 9.27228 19.974 10.2374 18.9169C11.2025 19.974 12.0799 20.7007 12.9573 21.2072C13.6811 21.6256 14.4269 21.8679 15.1508 21.956C15.3262 21.978 15.5456 22 15.7211 22C16.3352 22 16.9494 21.8899 17.4978 21.6476C19.0332 21.031 20.108 19.6216 20.3493 17.992C20.5248 17.2212 20.437 16.4505 20.1519 15.6356ZM10.2593 16.7808C9.07487 15.2833 8.30716 13.8739 8.04394 12.6847C7.93427 12.1782 7.91233 11.7377 7.97814 11.3413C8.02201 10.989 8.15361 10.6807 8.32909 10.4164C8.74585 9.82182 9.44776 9.44745 10.2593 9.44745C11.0709 9.44745 11.7948 9.7998 12.1896 10.4164C12.3651 10.6807 12.4967 10.989 12.5405 11.3413C12.6063 11.7377 12.5844 12.2002 12.4747 12.6847C12.2115 13.8519 11.4438 15.2613 10.2593 16.7808ZM19.0113 17.8158C18.8577 18.961 18.09 19.952 17.0152 20.3924C16.4888 20.6126 15.9185 20.6787 15.3482 20.6126C14.7998 20.5465 14.2514 20.3704 13.6811 20.04C12.8915 19.5996 12.1019 18.9169 11.1806 17.9039C12.6283 16.1201 13.5057 14.4905 13.8347 13.037C13.9882 12.3544 14.0102 11.7377 13.9444 11.1652C13.8566 10.6146 13.6592 10.1081 13.3521 9.66767C12.6722 8.67668 11.5316 8.1041 10.2593 8.1041C8.98713 8.1041 7.84653 8.6987 7.16655 9.66767C6.85947 10.1081 6.66206 10.6146 6.57432 11.1652C6.48658 11.7377 6.50851 12.3764 6.68399 13.037C7.01301 14.4905 7.91233 16.1421 9.33809 17.9259C8.43876 18.9389 7.62718 19.6216 6.83753 20.0621C6.26723 20.3924 5.71887 20.5686 5.1705 20.6346C4.57827 20.7007 4.00796 20.6126 3.50347 20.4144C2.42867 19.974 1.66096 18.983 1.50741 17.8378C1.44161 17.2873 1.48548 16.7367 1.70483 16.1201C1.77063 15.8999 1.8803 15.6797 1.98998 15.4154C2.14352 15.0631 2.319 14.6887 2.49447 14.3143L2.51641 14.2703C4.0299 10.989 5.65306 7.64164 7.34203 4.38238L7.40784 4.25025C7.58331 3.91992 7.75879 3.56757 7.93427 3.23724C8.10974 2.88488 8.30716 2.55455 8.54844 2.26827C9.00906 1.73974 9.62323 1.45345 10.3032 1.45345C10.9832 1.45345 11.5974 1.73974 12.058 2.26827C12.2993 2.55455 12.4967 2.88488 12.6722 3.23724C12.8476 3.56757 13.0231 3.91992 13.1986 4.25025L13.2644 4.38238C14.9314 7.66366 16.5546 11.011 18.0681 14.2923V14.3143C18.2436 14.6667 18.3971 15.0631 18.5726 15.4154C18.6822 15.6797 18.7919 15.8999 18.8577 16.1201C19.0332 16.6927 19.099 17.2432 19.0113 17.8158Z" fill="#FF385C"></path></g><defs><clipPath id="clip0_16066_15891"><rect width="70.2128" height="22" fill="white" transform="translate(0.081543)"></rect></clipPath></defs></svg>