<svg xmlns="http://www.w3.org/2000/svg" width="20" height="17" viewBox="0 0 20 17" fill="none"><path d="M18.5781 2.37891L12.9531 6.87891C12.5312 7.23047 11.9688 7.23047 11.5469 6.91406L7.75 4.06641L2.82812 8.00391C2.33594 8.39062 1.63281 8.32031 1.24609 7.82812C0.859375 7.37109 0.929688 6.63281 1.42188 6.24609L7.04688 1.74609C7.43359 1.42969 7.99609 1.42969 8.41797 1.74609L12.2148 4.59375L17.1719 0.621094C17.6289 0.234375 18.3672 0.339844 18.7539 0.796875C19.1406 1.28906 19.0352 1.99219 18.5781 2.37891ZM6.625 8.25C6.625 7.65234 7.11719 7.125 7.75 7.125C8.34766 7.125 8.875 7.65234 8.875 8.25V15C8.875 15.6328 8.34766 16.125 7.75 16.125C7.11719 16.125 6.625 15.6328 6.625 15V8.25ZM2.125 11.625C2.125 11.0273 2.61719 10.5 3.25 10.5C3.84766 10.5 4.375 11.0273 4.375 11.625V15C4.375 15.6328 3.84766 16.125 3.25 16.125C2.61719 16.125 2.125 15.6328 2.125 15V11.625ZM12.25 9.375C12.8477 9.375 13.375 9.90234 13.375 10.5V15C13.375 15.6328 12.8477 16.125 12.25 16.125C11.6172 16.125 11.125 15.6328 11.125 15V10.5C11.125 9.90234 11.6172 9.375 12.25 9.375ZM15.625 8.25C15.625 7.65234 16.1172 7.125 16.75 7.125C17.3477 7.125 17.875 7.65234 17.875 8.25V15C17.875 15.6328 17.3477 16.125 16.75 16.125C16.1172 16.125 15.625 15.6328 15.625 15V8.25Z" fill="#F79009"></path></svg>