<svg xmlns="http://www.w3.org/2000/svg" width="97" height="20" viewBox="0 0 97 20" fill="none"><path d="M28.6164 6.44098C28.6164 5.95816 28.2439 5.56201 27.7226 5.56201C27.2013 5.56201 26.8289 5.95816 26.8289 6.44098V13.5717C26.8289 14.0545 27.2013 14.4507 27.7226 14.4507C28.2563 14.4507 28.6164 14.0545 28.6164 13.5717V6.44098Z" fill="#081D34"></path><path d="M37.4179 5.56201C36.8966 5.56201 36.5365 5.95816 36.5365 6.44098V9.4864L36.5862 12.21L35.5062 9.65966L34.0912 6.76285C33.6567 5.85912 33.1603 5.56201 32.4527 5.56201C31.41 5.56201 30.9507 6.21813 30.9507 7.15899V13.5717C30.9507 14.0545 31.3106 14.4507 31.8321 14.4507C32.3534 14.4507 32.7133 14.0545 32.7133 13.5717L32.7009 10.5635L32.6637 7.48087L33.8181 10.3034L35.2456 13.2498C35.6925 14.1907 36.1642 14.4631 36.8841 14.4631C37.8151 14.4631 38.2992 13.8935 38.2992 12.8413V6.44098C38.2992 5.95816 37.9392 5.56201 37.4179 5.56201Z" fill="#081D34"></path><path d="M44.8897 7.38126L46.913 7.43078C47.3847 7.44315 47.7571 7.08415 47.7571 6.5642C47.7571 6.04425 47.3847 5.68523 46.913 5.68523L41.054 5.67285C40.5948 5.67285 40.21 6.03186 40.21 6.55182C40.21 7.07177 40.5948 7.43078 41.054 7.4184L43.0898 7.38126V13.5711C43.0898 14.054 43.4621 14.4501 43.9835 14.4501C44.5172 14.4501 44.8897 14.054 44.8897 13.5711V7.38126Z" fill="#081D34"></path><path d="M50.8876 14.3389H55.2445C55.7038 14.3389 56.0763 13.9922 56.0763 13.5094C56.0763 13.0142 55.7038 12.6676 55.2445 12.6676L51.4586 12.68V10.6125H54.7356C55.1825 10.6125 55.5424 10.2782 55.5424 9.82025C55.5424 9.34977 55.1825 9.01551 54.7356 9.01551L51.4586 9.04028V7.33191H55.2445C55.7038 7.33191 56.0763 6.98528 56.0763 6.49008C56.0763 5.99489 55.7038 5.66064 55.2445 5.66064L50.9 5.67302C50.1055 5.67302 49.6587 6.11869 49.6587 6.911V13.1009C49.6587 13.8931 50.1055 14.3389 50.8876 14.3389Z" fill="#081D34"></path><path d="M63.1729 10.8105C64.3521 10.501 65.0473 9.58489 65.0473 8.37164C65.0473 7.02225 64.1659 5.67285 62.0557 5.67285H59.3248C58.5304 5.67285 58.0835 6.11852 58.0835 6.91083V13.5711C58.0835 14.054 58.4559 14.4501 59.0021 14.4501C59.5358 14.4501 59.9206 14.054 59.9206 13.5711L59.9083 11.2437H61.4102L62.937 13.992C63.1853 14.413 63.7066 14.5863 64.1908 14.3387C64.6748 14.0787 64.8114 13.5587 64.5507 13.1379L63.1729 10.8105ZM59.9083 7.31936H62.0681C62.8004 7.31936 63.2598 7.77741 63.2598 8.4583C63.2598 9.1268 62.8253 9.62204 62.093 9.62204H59.9083V7.31936Z" fill="#081D34"></path><path d="M70.5297 14.4998C72.3421 14.4998 73.5089 13.6828 73.9061 12.3582C74.1171 11.603 73.6703 11.0583 72.9999 11.0583C72.5903 11.0583 72.3172 11.2687 72.1558 11.7268C71.9077 12.4201 71.2993 12.8534 70.4304 12.8534C69.0526 12.8534 68.4568 11.9248 68.4568 9.99361C68.4568 8.09954 69.065 7.19582 70.4304 7.19582C71.2869 7.19582 71.7835 7.55484 72.0938 8.38428C72.2676 8.85472 72.5531 9.06514 72.9751 9.06514C73.6206 9.06514 74.0922 8.54521 73.8937 7.82719C73.4965 6.36638 72.3421 5.54932 70.4801 5.54932C67.9231 5.54932 66.6196 7.10917 66.6196 9.99361C66.6196 12.9029 67.9231 14.4998 70.5297 14.4998Z" fill="#081D34"></path><path d="M79.3553 14.4754C81.987 14.4754 83.2903 12.8659 83.2903 9.99381C83.2903 7.09698 81.9497 5.5 79.3553 5.5C76.7487 5.5 75.4452 7.12174 75.4329 9.99381C75.4329 12.8783 76.7611 14.4754 79.3553 14.4754ZM79.3553 12.8165C77.8906 12.8165 77.2576 11.888 77.2576 9.99381C77.2576 8.07498 77.9031 7.14651 79.3429 7.14651C80.7953 7.14651 81.478 8.07498 81.4656 9.99381C81.4656 11.9003 80.8202 12.8165 79.3553 12.8165Z" fill="#081D34"></path><path d="M94.8457 7.10917C94.8457 6.13116 94.2375 5.54932 93.2941 5.54932C92.5245 5.54932 91.9411 5.97023 91.6556 6.93585L90.6998 10.0431L90.0667 12.2839L89.4585 10.0431L88.4406 6.93585C88.1551 6.03213 87.6586 5.54932 86.7896 5.54932C85.8339 5.54932 85.238 6.11878 85.238 7.10917V13.5714C85.238 14.0542 85.5856 14.4504 86.0945 14.4504C86.6035 14.4504 86.951 14.0542 86.951 13.5714L86.9387 10.4517L86.8518 7.10917L87.8324 10.526L88.8751 13.5466C89.0985 14.2151 89.5205 14.438 90.0667 14.438C90.5757 14.438 90.9853 14.2523 91.1963 13.5714L92.1893 10.526L93.2445 7.08441L93.1452 10.4517V13.5714C93.1452 14.0542 93.5051 14.4504 94.0017 14.4504C94.5105 14.4504 94.8582 14.0542 94.8582 13.5714L94.8457 7.10917Z" fill="#081D34"></path><path d="M17.7458 10.9689C17.7458 11.1407 17.6781 11.3055 17.5576 11.4269C17.4371 11.5483 17.2736 11.6166 17.1032 11.6166C16.9327 11.6166 16.7693 11.5483 16.6488 11.4269C16.5283 11.3055 16.4606 11.1407 16.4606 10.9689V5.18324C16.4606 5.01148 16.5283 4.84676 16.6488 4.72531C16.7693 4.60386 16.9327 4.53562 17.1032 4.53562C17.2736 4.53562 17.4371 4.60386 17.5576 4.72531C17.6781 4.84676 17.7458 5.01148 17.7458 5.18324V10.9689ZM17.5227 14.9778C17.4377 15.0634 15.048 17.0705 10.6668 17.0705C6.28562 17.0705 3.91181 15.0741 3.81092 14.9884C3.74733 14.9344 3.69495 14.8683 3.65679 14.7938C3.61863 14.7193 3.59542 14.638 3.58852 14.5544C3.58161 14.4709 3.59113 14.3868 3.61654 14.307C3.64194 14.2272 3.68273 14.1532 3.73657 14.0893C3.84748 13.96 4.00462 13.8801 4.17374 13.867C4.34286 13.854 4.51023 13.9089 4.63936 14.0197C4.67653 14.0465 6.81136 15.7913 10.6615 15.7913C14.5116 15.7913 16.6624 14.0358 16.6837 14.0197C16.8142 13.9099 16.9821 13.8557 17.1517 13.8687C17.3213 13.8817 17.4791 13.9608 17.5917 14.0893C17.7001 14.2167 17.7541 14.3821 17.7422 14.5494C17.7303 14.7167 17.6533 14.8727 17.528 14.9831L17.5227 14.9778ZM3.58257 5.18324C3.59217 5.01094 3.66906 4.84947 3.79643 4.73414C3.9238 4.61881 4.0913 4.55898 4.26231 4.56774C4.42084 4.57681 4.57043 4.64472 4.68222 4.75838C4.79402 4.87204 4.8601 5.02339 4.86771 5.18324V10.9583C4.86771 11.13 4.80001 11.2947 4.67951 11.4162C4.559 11.5377 4.39556 11.6059 4.22514 11.6059C4.05472 11.6059 3.89128 11.5377 3.77077 11.4162C3.65027 11.2947 3.58257 11.13 3.58257 10.9583V5.18324ZM6.80606 3.89871C6.81566 3.72641 6.89255 3.56495 7.01992 3.44962C7.14729 3.33428 7.31479 3.27446 7.4858 3.28321C7.64433 3.29229 7.79392 3.3602 7.90571 3.47385C8.01751 3.58751 8.08358 3.73886 8.0912 3.89871V12.4622C8.0912 12.634 8.0235 12.7987 7.903 12.9202C7.78249 13.0416 7.61905 13.1098 7.44863 13.1098C7.27821 13.1098 7.11477 13.0416 6.99426 12.9202C6.87376 12.7987 6.80606 12.634 6.80606 12.4622V3.89871ZM10.0455 3.57758C10.0455 3.40582 10.1132 3.2411 10.2337 3.11965C10.3542 2.9982 10.5176 2.92996 10.688 2.92996C10.8585 2.92996 11.0219 2.9982 11.1424 3.11965C11.2629 3.2411 11.3306 3.40582 11.3306 3.57758V12.8904C11.3306 13.0621 11.2629 13.2269 11.1424 13.3484C11.0219 13.4698 10.8585 13.538 10.688 13.538C10.5176 13.538 10.3542 13.4698 10.2337 13.3484C10.1132 13.2269 10.0455 13.0621 10.0455 12.8904V3.57758ZM13.2318 3.89871C13.2318 3.72696 13.2995 3.56223 13.42 3.44078C13.5405 3.31933 13.704 3.2511 13.8743 3.2511C14.0448 3.2511 14.2082 3.31933 14.3287 3.44078C14.4492 3.56223 14.5169 3.72696 14.5169 3.89871V12.4622C14.5169 12.634 14.4492 12.7987 14.3287 12.9202C14.2082 13.0416 14.0448 13.1098 13.8743 13.1098C13.704 13.1098 13.5405 13.0416 13.42 12.9202C13.2995 12.7987 13.2318 12.634 13.2318 12.4622V3.89871ZM17.921 0.366264H3.43386C3.1182 0.36415 2.80522 0.424809 2.51285 0.544768C2.22048 0.664727 1.95445 0.841632 1.73001 1.06535C1.50556 1.28907 1.32711 1.55521 1.20486 1.84854C1.08261 2.14186 1.01897 2.4566 1.01758 2.77476V17.2257C1.01897 17.5438 1.08261 17.8586 1.20486 18.1519C1.32711 18.4452 1.50556 18.7114 1.73001 18.9351C1.95445 19.1588 2.22048 19.3357 2.51285 19.4557C2.80522 19.5757 3.1182 19.6363 3.43386 19.6341H17.921C18.2362 19.6363 18.5488 19.5758 18.8408 19.4562C19.1328 19.3366 19.3986 19.1601 19.623 18.9369C19.8473 18.7138 20.0259 18.4483 20.1484 18.1556C20.2711 17.8629 20.3352 17.5487 20.3372 17.231V2.77476C20.3359 2.45706 20.2724 2.14276 20.1505 1.84978C20.0286 1.55681 19.8506 1.29091 19.6267 1.06725C19.4028 0.843604 19.1375 0.666587 18.8457 0.546312C18.5539 0.426036 18.2415 0.364856 17.9263 0.366264" fill="#081D34"></path></svg>