<svg xmlns="http://www.w3.org/2000/svg" width="18" height="17" viewBox="0 0 18 17" fill="none"><path d="M11.3555 0.480469C12.7266 0.867188 13.5 2.27344 13.1133 3.60938L12.9023 4.3125C12.7969 4.69922 12.6562 5.08594 12.4805 5.4375H15.75C16.9805 5.4375 18 6.45703 18 7.6875C18 8.32031 17.7188 8.88281 17.332 9.30469C17.4023 9.51562 17.4375 9.72656 17.4375 9.97266C17.4375 10.6758 17.0859 11.3438 16.5234 11.7656C16.5586 11.9062 16.5938 12.0469 16.5938 12.2227C16.5938 12.9258 16.2422 13.5586 15.75 13.9805C15.6797 15.1758 14.6953 16.1602 13.5 16.1602H10.0547C9.28125 16.1602 8.50781 15.9141 7.875 15.4922L5.69531 14.0508C5.30859 13.7695 5.20312 13.2422 5.48438 12.8555C5.73047 12.4688 6.25781 12.3633 6.64453 12.6445L8.82422 14.0859C9.17578 14.332 9.59766 14.4375 10.0547 14.4375H13.5C13.7812 14.4375 14.0625 14.1914 14.0625 13.875C14.0625 13.8398 14.0273 13.7695 14.0273 13.7344C13.9219 13.3125 14.1328 12.8906 14.5195 12.7148C14.7305 12.6445 14.9062 12.4336 14.9062 12.1875C14.9062 12.082 14.8359 11.9414 14.7656 11.8711C14.5898 11.625 14.5547 11.3086 14.6602 11.0273C14.7305 10.7461 14.9766 10.5703 15.293 10.5C15.5391 10.4648 15.75 10.2188 15.75 9.9375C15.75 9.79688 15.6797 9.69141 15.6094 9.58594C15.3984 9.375 15.3281 9.09375 15.3984 8.8125C15.4688 8.53125 15.6797 8.32031 15.9258 8.21484C16.1367 8.14453 16.3125 7.93359 16.3125 7.6875C16.3125 7.40625 16.0312 7.125 15.75 7.125H11.0391C10.7227 7.125 10.4414 6.94922 10.3008 6.66797C10.1602 6.38672 10.1602 6.07031 10.3359 5.82422C10.7578 5.22656 11.0742 4.55859 11.2852 3.85547L11.4961 3.15234C11.6016 2.69531 11.3555 2.23828 10.8984 2.09766C10.4414 1.99219 9.98438 2.23828 9.84375 2.69531L9.66797 3.39844C9.45703 4.10156 9.10547 4.73438 8.61328 5.29688L6.78516 7.26562C6.46875 7.61719 5.94141 7.65234 5.58984 7.33594C5.27344 7.01953 5.23828 6.49219 5.55469 6.14062L7.34766 4.17188C7.66406 3.82031 7.91016 3.39844 8.05078 2.94141L8.22656 2.23828C8.61328 0.867188 10.0195 0.09375 11.3555 0.480469ZM1.125 6H3.375C3.97266 6 4.5 6.52734 4.5 7.125V15C4.5 15.6328 3.97266 16.125 3.375 16.125H1.125C0.492188 16.125 0 15.6328 0 15V7.125C0 6.52734 0.492188 6 1.125 6Z" fill="#17B26A"></path></svg>