<svg xmlns="http://www.w3.org/2000/svg" width="85" height="18" viewBox="0 0 85 18" fill="none"><g clip-path="url(#clip0_16066_15893)"><path d="M30.0346 10.3655L29.5324 11.7868H29.4906C29.4069 11.4663 29.2534 10.9786 29.0023 10.3934L26.3101 3.63556H23.6736V14.4063H25.4173V7.75994C25.4173 7.34193 25.4173 6.86818 25.4033 6.28297C25.3894 5.99036 25.3615 5.76742 25.3475 5.60022H25.3894C25.4731 6.01823 25.5707 6.32477 25.6405 6.51984L28.8768 14.3784H30.1043L33.3127 6.45017C33.3825 6.26903 33.4522 5.90676 33.522 5.60022H33.5638C33.522 6.39444 33.4941 7.10505 33.4801 7.537V14.3645H35.3354V3.6077H32.7966L30.0346 10.3655ZM37.0931 6.64524H38.9065V14.3645H37.0931V6.64524ZM38.0137 3.38476C37.7068 3.38476 37.4558 3.49623 37.2465 3.6913C37.0373 3.88637 36.9257 4.13718 36.9257 4.44372C36.9257 4.73633 37.0373 4.98713 37.2465 5.1822C37.4558 5.37728 37.7068 5.47481 38.0137 5.47481C38.3206 5.47481 38.5857 5.36334 38.781 5.1822C38.9902 4.98713 39.1018 4.73633 39.1018 4.44372C39.1018 4.15111 38.9902 3.9003 38.781 3.6913C38.5996 3.49623 38.3346 3.38476 38.0137 3.38476ZM45.3373 6.57557C45.0025 6.50591 44.6537 6.4641 44.3189 6.4641C43.4959 6.4641 42.7426 6.64524 42.1149 7.00752C41.4872 7.36979 40.985 7.87141 40.6642 8.49842C40.3294 9.13937 40.162 9.87786 40.162 10.7278C40.162 11.4663 40.3294 12.1212 40.6502 12.7203C40.971 13.3055 41.4174 13.7793 42.0173 14.0998C42.5892 14.4202 43.2588 14.5874 44.012 14.5874C44.8769 14.5874 45.6162 14.4063 46.2021 14.0719L46.2161 14.058V12.3859L46.1463 12.4417C45.8813 12.6367 45.5744 12.8039 45.2675 12.9015C44.9467 13.0129 44.6537 13.0687 44.4026 13.0687C43.6773 13.0687 43.1053 12.8597 42.7008 12.3999C42.2823 11.954 42.0731 11.3409 42.0731 10.5745C42.0731 9.78032 42.2823 9.15331 42.7147 8.6935C43.1472 8.23368 43.7191 7.99681 44.4166 7.99681C45.0025 7.99681 45.6023 8.19188 46.1463 8.58203L46.2161 8.63776V6.86818L46.2021 6.85425C45.965 6.75671 45.6999 6.64524 45.3373 6.57557ZM51.3216 6.51984C50.8752 6.51984 50.4567 6.65918 50.0941 6.95178C49.7872 7.20259 49.5779 7.56487 49.3966 7.99681H49.3826V6.64524H47.5692V14.3645H49.3826V10.4213C49.3826 9.75246 49.5221 9.19511 49.829 8.79103C50.1359 8.37302 50.5265 8.16402 51.0008 8.16402C51.1682 8.16402 51.3356 8.20582 51.5448 8.23368C51.7401 8.28942 51.8796 8.34515 51.9772 8.41482L52.047 8.47056V6.65918L52.0051 6.64524C51.8796 6.56164 51.6285 6.51984 51.3216 6.51984ZM56.2598 6.47804C54.9904 6.47804 53.972 6.85425 53.2606 7.59273C52.5352 8.33122 52.1865 9.34838 52.1865 10.6303C52.1865 11.8286 52.5492 12.8039 53.2467 13.5146C53.9441 14.2112 54.8927 14.5735 56.0784 14.5735C57.3199 14.5735 58.3103 14.1973 59.0218 13.4449C59.7472 12.6925 60.0959 11.6892 60.0959 10.4491C60.0959 9.22298 59.7611 8.24762 59.0776 7.537C58.4219 6.82638 57.4594 6.47804 56.2598 6.47804ZM57.7105 12.4138C57.3757 12.8457 56.8456 13.0547 56.19 13.0547C55.5344 13.0547 55.0043 12.8457 54.6277 12.3859C54.251 11.954 54.0697 11.327 54.0697 10.5327C54.0697 9.71066 54.265 9.08364 54.6277 8.63776C55.0043 8.19188 55.5204 7.96894 56.1761 7.96894C56.8177 7.96894 57.3199 8.17795 57.6826 8.60989C58.0453 9.04184 58.2406 9.66885 58.2406 10.4909C58.2127 11.327 58.0593 11.9818 57.7105 12.4138ZM64.1413 9.84999C63.5693 9.61312 63.2066 9.43198 63.0392 9.27871C62.8997 9.13937 62.83 8.9443 62.83 8.6935C62.83 8.48449 62.9137 8.27548 63.1229 8.13615C63.3322 7.99681 63.5693 7.92714 63.9181 7.92714C64.225 7.92714 64.5458 7.98288 64.8527 8.06648C65.1596 8.15008 65.4386 8.27549 65.6618 8.44269L65.7315 8.49842V6.79851L65.6897 6.78458C65.4804 6.70098 65.2014 6.61738 64.8666 6.54771C64.5319 6.49197 64.225 6.4641 63.9739 6.4641C63.109 6.4641 62.3976 6.67311 61.8396 7.13292C61.2816 7.56487 61.0166 8.15008 61.0166 8.83283C61.0166 9.19511 61.0724 9.51558 61.1979 9.78032C61.3235 10.0451 61.5048 10.2959 61.7559 10.5049C62.007 10.6999 62.3697 10.9229 62.8719 11.1319C63.2903 11.313 63.6112 11.4524 63.8065 11.5638C64.0018 11.6753 64.1273 11.8007 64.225 11.8982C64.2947 12.0097 64.3366 12.1491 64.3366 12.3302C64.3366 12.8457 63.946 13.0965 63.1508 13.0965C62.844 13.0965 62.5231 13.0408 62.1465 12.9154C61.7698 12.79 61.4211 12.6089 61.1282 12.3999L61.0584 12.3441V14.1137L61.1003 14.1276C61.3653 14.253 61.6861 14.3366 62.0767 14.4342C62.4673 14.5038 62.8161 14.5596 63.1229 14.5596C64.0576 14.5596 64.8248 14.3506 65.3688 13.8908C65.9268 13.4449 66.2197 12.8736 66.2197 12.1351C66.2197 11.6196 66.0803 11.1598 65.7734 10.8114C65.3688 10.477 64.8666 10.1287 64.1413 9.84999ZM71.0044 6.47804C69.735 6.47804 68.7167 6.85425 68.0053 7.59273C67.2939 8.33122 66.9312 9.34838 66.9312 10.6303C66.9312 11.8286 67.2939 12.8039 67.9913 13.5146C68.6888 14.2112 69.6374 14.5735 70.8231 14.5735C72.0646 14.5735 73.055 14.1973 73.7665 13.4449C74.4918 12.6925 74.8406 11.6892 74.8406 10.4491C74.8406 9.22298 74.5058 8.24762 73.8223 7.537C73.1666 6.82638 72.2041 6.47804 71.0044 6.47804ZM72.4413 12.4138C72.1065 12.8457 71.5764 13.0547 70.9207 13.0547C70.2512 13.0547 69.735 12.8457 69.3584 12.3859C68.9818 11.954 68.8004 11.327 68.8004 10.5327C68.8004 9.71066 68.9957 9.08364 69.3584 8.63776C69.735 8.19188 70.2512 7.96894 70.9068 7.96894C71.5345 7.96894 72.0507 8.17795 72.4134 8.60989C72.776 9.04184 72.9713 9.66885 72.9713 10.4909C72.9713 11.327 72.79 11.9818 72.4413 12.4138ZM84.5355 8.13615V6.64524H82.7081V4.36012L82.6523 4.37405L80.9226 4.8896L80.8807 4.90353V6.64524H78.1466V5.66988C78.1466 5.22401 78.2582 4.87566 78.4535 4.65272C78.6488 4.42978 78.9418 4.31832 79.3044 4.31832C79.5555 4.31832 79.8206 4.37405 80.1135 4.49945L80.1833 4.54125V2.96675L80.1414 2.95281C79.8903 2.86921 79.5555 2.81348 79.1231 2.81348C78.5791 2.81348 78.1048 2.93888 77.6723 3.14789C77.2399 3.38476 76.9191 3.70523 76.6819 4.13718C76.4448 4.55519 76.3192 5.02893 76.3192 5.57235V6.64524H75.0498V8.12221H76.3192V14.3645H78.1466V8.13615H80.8807V12.1073C80.8807 13.7375 81.648 14.5596 83.1824 14.5596C83.4335 14.5596 83.6986 14.5178 83.9496 14.476C84.2147 14.4202 84.41 14.3506 84.5216 14.2948L84.5355 14.2809V12.79L84.4658 12.8457C84.3542 12.9154 84.2565 12.9711 84.0891 13.0129C83.9496 13.0547 83.8241 13.0687 83.7264 13.0687C83.3638 13.0687 83.1127 12.9851 82.9313 12.7761C82.7639 12.581 82.6802 12.2605 82.6802 11.7868V8.13615H84.5355Z" fill="#737373"></path><path d="M0.294434 0.0126953H8.84552V8.55405H0.294434V0.0126953Z" fill="#F25022"></path><path d="M9.73804 0.0126953H18.2891V8.55405H9.73804V0.0126953Z" fill="#7FBA00"></path><path d="M0.294434 9.4458H8.84552V17.9872H0.294434V9.4458Z" fill="#00A4EF"></path><path d="M9.73804 9.4458H18.2891V17.9872H9.73804V9.4458Z" fill="#FFB900"></path></g><defs><clipPath id="clip0_16066_15893"><rect width="84.2553" height="17.9745" fill="white" transform="translate(0.294434 0.0126953)"></rect></clipPath></defs></svg>