<svg xmlns="http://www.w3.org/2000/svg" width="88" height="18" viewBox="0 0 88 18" fill="none"><g clip-path="url(#clip0_16066_15909)"><path fill-rule="evenodd" clip-rule="evenodd" d="M15.8525 0.200195H2.60871C1.46796 0.200195 0.549805 1.11628 0.549805 2.25445V15.4406C0.549805 15.9958 0.772389 16.5232 1.16191 16.9119C1.55143 17.3005 2.08007 17.5226 2.63653 17.5226H15.8525C16.4089 17.5226 16.9376 17.3005 17.3271 16.9119C17.7166 16.5232 17.9392 15.9958 17.9392 15.4406V2.25445C17.9114 1.11628 16.9932 0.200195 15.8525 0.200195ZM8.03419 12.6645C8.03419 12.8589 7.95072 13.0254 7.83943 13.1642C7.70032 13.303 7.53338 13.3586 7.33862 13.3586H4.44503C4.0555 13.3586 3.74945 13.0532 3.74945 12.6645V4.08663C3.74945 3.69799 4.0555 3.39262 4.44503 3.39262H7.33862C7.72814 3.39262 8.03419 3.69799 8.03419 4.08663V12.6645ZM14.7117 8.72259C14.7117 8.91691 14.6282 9.08348 14.517 9.22228C14.4057 9.36108 14.2109 9.4166 14.0161 9.4166H11.1225C10.733 9.4166 10.427 9.11124 10.427 8.72259V4.08663C10.427 3.69799 10.733 3.39262 11.1225 3.39262H14.0161C14.4057 3.39262 14.7117 3.69799 14.7117 4.08663V8.72259Z" fill="url(#paint0_linear_16066_15909)"></path><path d="M33.6997 3.37012V5.88539H30.7412V15.3852H27.866V5.86461H24.8867V3.37012H33.6997Z" fill="#293856"></path><path d="M37.3665 15.3856H34.6997V6.03128H37.3457V7.819C37.8457 6.55097 38.6582 5.80262 40.0958 5.90656V8.67128C38.2207 8.52577 37.3457 8.98309 37.3457 10.4798V15.3856H37.3665Z" fill="#293856"></path><path d="M54.6174 15.4478C52.8673 15.4478 51.7839 14.6163 51.7839 12.6415V2.41406H54.4507V12.2881C54.4507 12.8493 54.8258 13.0572 55.2841 13.0572C55.4091 13.0572 55.555 13.0572 55.68 13.0364V15.3438C55.3258 15.427 54.9716 15.4686 54.6174 15.4478Z" fill="#293856"></path><path d="M60.1802 15.4478C58.4301 15.4478 57.3467 14.6163 57.3467 12.6415V2.41406H60.0135V12.2881C60.0135 12.8493 60.3885 13.0572 60.8677 13.0572C60.9927 13.0572 61.1385 13.0572 61.2635 13.0364V15.3438C60.9094 15.427 60.5552 15.4686 60.1802 15.4478Z" fill="#293856"></path><path d="M62.5344 10.7085C62.5344 7.81904 64.2012 5.84424 67.0763 5.84424C69.9515 5.84424 71.5766 7.81904 71.5766 10.7085C71.5766 13.5979 69.9306 15.6143 67.0763 15.6143C64.222 15.6143 62.5344 13.5772 62.5344 10.7085ZM65.1387 10.7085C65.1387 12.122 65.7221 13.2238 67.0763 13.2238C68.4306 13.2238 68.9723 12.1012 68.9723 10.7085C68.9723 9.31573 68.3889 8.214 67.0763 8.214C65.7638 8.214 65.1387 9.29495 65.1387 10.7085Z" fill="#293856"></path><path d="M43.7002 11.5396C44.4503 11.6227 45.2003 11.6643 45.9295 11.6643C47.9713 11.6643 49.6797 11.1238 49.6797 9.14902C49.6797 7.23658 47.9088 5.80225 45.7837 5.80225C42.9294 5.80225 41.0959 7.8602 41.0959 10.7704C41.0959 13.7638 42.6794 15.5515 46.242 15.5515C47.3046 15.5515 48.3463 15.3645 49.3464 14.9903V12.766C48.4297 13.057 47.4088 13.3481 46.3462 13.3481C44.9295 13.3689 43.9294 12.8908 43.7002 11.5396ZM45.742 7.8602C46.4921 7.8602 47.0963 8.37988 47.0963 9.06587C47.0963 9.95973 46.1379 10.2508 45.0545 10.2508C44.5961 10.2508 44.1169 10.2092 43.6586 10.1468C43.7002 9.71028 43.8253 9.29453 44.0336 8.89957C44.3669 8.27595 45.0336 7.88099 45.742 7.8602Z" fill="#293856"></path></g><defs><linearGradient id="paint0_linear_16066_15909" x1="9.23329" y1="17.5141" x2="9.23329" y2="0.197462" gradientUnits="userSpaceOnUse"><stop stop-color="#0052CC"></stop><stop offset="1" stop-color="#2684FF"></stop></linearGradient><clipPath id="clip0_16066_15909"><rect width="86.5574" height="17.6" fill="white" transform="translate(0.549805 0.200195)"></rect></clipPath></defs></svg>