<svg xmlns="http://www.w3.org/2000/svg" width="24" height="19" viewBox="0 0 24 19" fill="none"><path d="M8.625 7.5625C9.60938 7.5625 10.5234 7.03516 11.0508 6.15625C11.543 5.3125 11.543 4.22266 11.0508 3.34375C10.5234 2.5 9.60938 1.9375 8.625 1.9375C7.60547 1.9375 6.69141 2.5 6.16406 3.34375C5.67188 4.22266 5.67188 5.3125 6.16406 6.15625C6.69141 7.03516 7.60547 7.5625 8.625 7.5625ZM8.625 0.25C10.207 0.25 11.6836 1.12891 12.4922 2.5C13.3008 3.90625 13.3008 5.62891 12.4922 7C11.6836 8.40625 10.207 9.25 8.625 9.25C7.00781 9.25 5.53125 8.40625 4.72266 7C3.91406 5.62891 3.91406 3.90625 4.72266 2.5C5.53125 1.12891 7.00781 0.25 8.625 0.25ZM2.47266 16.5625H13.8984C14.3555 17.1953 14.9531 17.7578 15.6211 18.25C15.5508 18.25 15.5156 18.25 15.4453 18.25H1.76953C1.20703 18.25 0.75 17.793 0.75 17.2305C0.75 13.75 3.52734 10.9375 7.00781 10.9375H8.625H10.207C10.8398 10.9375 11.4375 11.043 12 11.2188C12.0352 11.7812 12.1055 12.4492 12.2812 13.1523C11.6836 12.8359 10.9453 12.625 10.207 12.625H7.00781C4.6875 12.625 2.78906 14.3477 2.47266 16.5625ZM17.8711 8.19531C18.0469 8.125 18.293 8.125 18.4688 8.19531L22.6875 9.88281C23.0391 10.0234 23.25 10.3398 23.25 10.6562C23.25 12.9062 22.3359 16.5977 18.5039 18.2148C18.293 18.2852 18.0469 18.2852 17.8359 18.2148C14.0039 16.5977 13.125 12.9062 13.125 10.6562C13.125 10.3398 13.3359 10.0234 13.6523 9.88281L17.8711 8.19531ZM21.5273 11.2188L18.1875 9.88281V16.4922C20.5781 15.332 21.3867 13.0117 21.5273 11.2188Z" fill="#2E90FA"></path></svg>