<svg width="520" height="250" viewBox="0 0 520 250" fill="none" xmlns="http://www.w3.org/2000/svg">
<path d="M9.76382 175.067V146.761L71.2897 49.8152H96.4427V88.2414H81.8496L45.8434 145.294V146.467H134.942V175.067H9.76382ZM82.2896 200V166.414L83.0229 154.021V49.8152H116.976V200H82.2896Z" fill="#1E1E1E"/>
<circle cx="259.947" cy="125" r="90.7358" stroke="#EE4710" stroke-width="24"/>
<path d="M386.235 175.067V146.761L447.761 49.8152H472.914V88.2414H458.321L422.315 145.294V146.467H511.414V175.067H386.235ZM458.761 200V166.414L459.494 154.021V49.8152H493.447V200H458.761Z" fill="#1E1E1E"/>
<path d="M241.289 94.5977L235.137 100.75L241.289 106.961C242.051 107.664 242.051 108.895 241.289 109.598C240.586 110.359 239.355 110.359 238.652 109.598L232.5 103.445L226.289 109.598C225.586 110.359 224.355 110.359 223.652 109.598C222.891 108.895 222.891 107.664 223.652 106.961L229.805 100.75L223.652 94.5977C222.891 93.8945 222.891 92.6641 223.652 91.9609C224.355 91.1992 225.586 91.1992 226.289 91.9609L232.5 98.1133L238.652 91.9609C239.355 91.1992 240.586 91.1992 241.289 91.9609C242.051 92.6641 242.051 93.8945 241.289 94.5977Z" fill="#EE4710"/>
<path d="M295.289 94.5977L289.137 100.75L295.289 106.961C296.051 107.664 296.051 108.895 295.289 109.598C294.586 110.359 293.355 110.359 292.652 109.598L286.5 103.445L280.289 109.598C279.586 110.359 278.355 110.359 277.652 109.598C276.891 108.895 276.891 107.664 277.652 106.961L283.805 100.75L277.652 94.5977C276.891 93.8945 276.891 92.6641 277.652 91.9609C278.355 91.1992 279.586 91.1992 280.289 91.9609L286.5 98.1133L292.652 91.9609C293.355 91.1992 294.586 91.1992 295.289 91.9609C296.051 92.6641 296.051 93.8945 295.289 94.5977Z" fill="#EE4710"/>
<rect x="202" y="136" width="115" height="4" rx="2" fill="#EE4710"/>
<path d="M221 138V152.5C221 158.299 225.701 163 231.5 163V163C237.299 163 242 158.299 242 152.5V138" stroke="#EE4710" stroke-width="4"/>
</svg>
