<svg width="10" height="14" viewBox="0 0 10 14" fill="none" xmlns="http://www.w3.org/2000/svg">
<path opacity="0.5" d="M2.5 3C1.9375 3 1.46875 2.71875 1.1875 2.25C0.90625 1.8125 0.90625 1.21875 1.1875 0.75C1.46875 0.3125 1.9375 0 2.5 0C3.03125 0 3.5 0.3125 3.78125 0.75C4.0625 1.21875 4.0625 1.8125 3.78125 2.25C3.5 2.71875 3.03125 3 2.5 3ZM2.5 8C1.9375 8 1.46875 7.71875 1.1875 7.25C0.90625 6.8125 0.90625 6.21875 1.1875 5.75C1.46875 5.3125 1.9375 5 2.5 5C3.03125 5 3.5 5.3125 3.78125 5.75C4.0625 6.21875 4.0625 6.8125 3.78125 7.25C3.5 7.71875 3.03125 8 2.5 8ZM4 11.5C4 12.0625 3.6875 12.5312 3.25 12.8125C2.78125 13.0938 2.1875 13.0938 1.75 12.8125C1.28125 12.5312 1 12.0625 1 11.5C1 10.9688 1.28125 10.5 1.75 10.2188C2.1875 9.9375 2.78125 9.9375 3.25 10.2188C3.6875 10.5 4 10.9688 4 11.5ZM7.5 3C6.9375 3 6.46875 2.71875 6.1875 2.25C5.90625 1.8125 5.90625 1.21875 6.1875 0.75C6.46875 0.3125 6.9375 0 7.5 0C8.03125 0 8.5 0.3125 8.78125 0.75C9.0625 1.21875 9.0625 1.8125 8.78125 2.25C8.5 2.71875 8.03125 3 7.5 3ZM9 6.5C9 7.0625 8.6875 7.53125 8.25 7.8125C7.78125 8.09375 7.1875 8.09375 6.75 7.8125C6.28125 7.53125 6 7.0625 6 6.5C6 5.96875 6.28125 5.5 6.75 5.21875C7.1875 4.9375 7.78125 4.9375 8.25 5.21875C8.6875 5.5 9 5.96875 9 6.5ZM7.5 13C6.9375 13 6.46875 12.7188 6.1875 12.25C5.90625 11.8125 5.90625 11.2188 6.1875 10.75C6.46875 10.3125 6.9375 10 7.5 10C8.03125 10 8.5 10.3125 8.78125 10.75C9.0625 11.2188 9.0625 11.8125 8.78125 12.25C8.5 12.7188 8.03125 13 7.5 13Z" fill="black"/>
</svg>
