<svg width="3840" height="360" viewBox="0 0 3840 360" fill="none" xmlns="http://www.w3.org/2000/svg">
<path d="M1920 0V153.1C1914.7 150.9 1909.3 148.7 1904.1 146.5C1825.5 113.1 1743.6 88.6 1657.8 74.5C1601.9 65.4 1545.6 61.4 1488.9 63.7C1409.6 66.8 1333.6 82.1 1261.5 111.9C1218.7 129.6 1173.8 141.2 1127.7 149.4C1065.8 160.2 1003.2 163.7 940.1 160.1C853.7 155.2 770.8 137.4 691.1 107.9C679.8 103.7 669.2 97.8 657.9 93.7C616.9 78.6 575 74.2 531.9 86.1C514.2 90.9 498 98.6 483 108.2C454.1 126.6 422.1 135.7 386.4 132.6C358.1 130.1 334.5 118.5 313.9 101.5C306.9 95.7 300.2 89.4 292.4 84.6C255.4 61.9 214.8 64 180.7 90C173.4 95.5 166.9 102.1 159 106.8C149.9 112.3 139.9 117.3 129.6 120.5C105.4 128 84.4 122.5 67.3 105.6C56.1 94.6 48.9 81.6 43.3 67.9C40.2 60.4 37.6 52.6 35.1 44.9C31.1 32.9 25.3 21.7 16.9 11.7C11.2 4.8 5.6 0.9 0 0H1920Z" fill="white"/>
</svg>
