<svg width="100" height="26" viewBox="0 0 100 26" fill="none" xmlns="http://www.w3.org/2000/svg">
<path fill-rule="evenodd" clip-rule="evenodd" d="M65.6673 0.0964353C66.1509 0.396003 66.3443 0.995138 66.0542 1.49442L61.0251 10.9807H99.0329C99.6132 10.9807 100 11.3801 100 11.9793C100 12.5784 99.6132 12.9778 99.0329 12.9778H57.7369L64.4101 0.495859C64.6035 -0.00342051 65.1838 -0.103276 65.6673 0.0964353ZM34.3327 25.8592C33.8491 25.5597 33.6557 24.9605 33.9458 24.4613L38.9749 14.975H0.967118C0.386847 14.975 0 14.5755 0 13.9764C0 13.3773 0.386847 12.9778 0.967118 12.9778H42.2631L35.5899 25.4598C35.3965 25.9591 34.8162 26.059 34.3327 25.8592ZM56.5764 0.0964353C57.06 0.396003 57.2534 0.995138 56.9632 1.49442L44.6809 25.4598C44.3907 25.9591 43.8104 26.1588 43.3269 25.8592C42.8433 25.5597 42.6499 24.9605 42.94 24.4613L55.2224 0.495859C55.5126 -0.00342051 56.0928 -0.103276 56.5764 0.0964353Z" fill="#ff5851"/>
</svg>
